<svg width="81" height="68" viewBox="0 0 81 68" fill="none" xmlns="http://www.w3.org/2000/svg">
<path d="M45.9001 36.56C48.0101 36.56 49.1201 35.58 50.0101 34.79C50.7901 34.1 51.3401 33.61 52.5701 33.61C53.7901 33.61 54.3501 34.11 55.1301 34.79C56.0201 35.58 57.1301 36.56 59.2401 36.56C61.3501 36.56 62.4601 35.58 63.3501 34.79C64.1201 34.1 64.6801 33.61 65.9101 33.61C67.1301 33.61 67.6901 34.11 68.4701 34.79C69.3601 35.58 70.4701 36.56 72.5801 36.56C74.6901 36.56 75.8001 35.58 76.6901 34.79C77.4601 34.1 78.0201 33.61 79.2501 33.61C79.9001 33.61 80.4201 33.09 80.4201 32.44C80.4201 31.79 79.9001 31.27 79.2501 31.27C77.1401 31.27 76.0301 32.25 75.1401 33.04C74.3701 33.73 73.8101 34.22 72.5801 34.22C71.3601 34.22 70.8001 33.73 70.0201 33.04C69.1301 32.25 68.0201 31.27 65.9101 31.27C63.8001 31.27 62.6901 32.25 61.8001 33.04C61.0301 33.73 60.4701 34.22 59.2401 34.22C58.0201 34.22 57.4601 33.72 56.6801 33.04C55.7901 32.25 54.6801 31.27 52.5701 31.27C50.4601 31.27 49.3501 32.25 48.4601 33.04C47.6901 33.73 47.1301 34.22 45.9001 34.22C44.6801 34.22 44.1201 33.72 43.3401 33.04C42.4501 32.25 41.3401 31.27 39.2301 31.27C38.5801 31.27 38.0601 31.79 38.0601 32.44C38.0601 33.09 38.5801 33.61 39.2301 33.61C40.4501 33.61 41.0101 34.11 41.7901 34.79C42.6801 35.58 43.7901 36.56 45.9001 36.56Z" fill="#A4E5FF"/>
<path d="M39.0901 8.29C39.0901 12.87 42.8001 16.58 47.3801 16.58C51.9601 16.58 55.6701 12.87 55.6701 8.29C55.6701 3.71 51.9601 0 47.3801 0C42.8001 0 39.0901 3.71 39.0901 8.29ZM41.2301 8.29C41.2301 4.9 43.9801 2.15 47.3701 2.15C50.7601 2.15 53.5101 4.9 53.5101 8.29C53.5101 11.68 50.7601 14.43 47.3701 14.43C43.9801 14.43 41.2301 11.68 41.2301 8.29Z" fill="#A4E5FF"/>
<path d="M5.53006 48.29L1.23006 43.99C0.920059 43.68 0.920059 43.19 1.23006 42.88C1.54006 42.57 2.03006 42.57 2.34006 42.88L6.64006 47.18L10.9401 42.88C11.2501 42.57 11.7401 42.57 12.0501 42.88C12.3601 43.19 12.3601 43.68 12.0501 43.99L7.75006 48.29L12.0501 52.59C12.3601 52.9 12.3601 53.39 12.0501 53.7C11.7401 54.01 11.2501 54.01 10.9401 53.7L6.64006 49.4L2.34006 53.7C2.03006 54.01 1.54006 54.01 1.23006 53.7C0.920059 53.39 0.920059 52.9 1.23006 52.59L5.53006 48.29Z" fill="#A4E5FF"/>
<path d="M45.58 67.88H13.64C11.76 67.88 10.24 66.36 10.24 64.48V14.42C10.24 12.54 11.76 11.02 13.64 11.02H45.58C47.46 11.02 48.98 12.54 48.98 14.42V64.48C48.98 66.36 47.46 67.88 45.58 67.88Z" fill="#EDDDA4"/>
<path d="M14.3301 60.42H42.4001" stroke="#694633" stroke-width="0.7108" stroke-miterlimit="10" stroke-linecap="round" stroke-linejoin="round"/>
<path d="M14.3301 55.4401H42.4001" stroke="#694633" stroke-width="0.7108" stroke-miterlimit="10" stroke-linecap="round" stroke-linejoin="round"/>
<path d="M14.3301 50.47H42.4001" stroke="#694633" stroke-width="0.7108" stroke-miterlimit="10" stroke-linecap="round" stroke-linejoin="round"/>
<path d="M14.3301 45.49H42.4001" stroke="#694633" stroke-width="0.7108" stroke-miterlimit="10" stroke-linecap="round" stroke-linejoin="round"/>
<path d="M14.3301 40.51H42.4001" stroke="#694633" stroke-width="0.7108" stroke-miterlimit="10" stroke-linecap="round" stroke-linejoin="round"/>
<path d="M14.3301 35.54H42.4001" stroke="#694633" stroke-width="0.7108" stroke-miterlimit="10" stroke-linecap="round" stroke-linejoin="round"/>
<path d="M14.3301 30.5601H42.4001" stroke="#694633" stroke-width="0.7108" stroke-miterlimit="10" stroke-linecap="round" stroke-linejoin="round"/>
<path d="M14.3301 25.59H42.4001" stroke="#694633" stroke-width="0.7108" stroke-miterlimit="10" stroke-linecap="round" stroke-linejoin="round"/>
<path d="M14.3301 20.61H42.4001" stroke="#694633" stroke-width="0.7108" stroke-miterlimit="10" stroke-linecap="round" stroke-linejoin="round"/>
<path d="M14.3301 15.64H42.4001" stroke="#694633" stroke-width="0.7108" stroke-miterlimit="10" stroke-linecap="round" stroke-linejoin="round"/>
<path d="M44.2 65.75H12.53C10.58 65.75 9 64.16 9 62.21V12.42C9 10.47 10.58 8.88 12.54 8.88H44.2C46.15 8.88 47.74 10.46 47.74 12.42V62.21C47.73 64.16 46.15 65.75 44.2 65.75Z" stroke="#694633" stroke-width="0.7108" stroke-miterlimit="10" stroke-linecap="round" stroke-linejoin="round"/>
<path d="M58.5499 57.93H32.6499C31.2599 57.93 30.1399 56.81 30.1399 55.42V44.8C30.1399 43.41 31.2599 42.29 32.6499 42.29H58.5499C59.9399 42.29 61.0599 43.41 61.0599 44.8V55.42C61.0599 56.81 59.9399 57.93 58.5499 57.93Z" fill="#F6F3E9"/>
<path d="M59.27 58.8201H33.71C32.23 58.8201 31.03 57.6201 31.03 56.1401V45.8601C31.03 44.3801 32.23 43.1801 33.71 43.1801H59.27C60.75 43.1801 61.95 44.3801 61.95 45.8601V56.1401C61.95 57.6201 60.75 58.8201 59.27 58.8201Z" fill="#E0DDD7"/>
<path d="M58.3799 57.93H32.8199C31.3399 57.93 30.1399 56.73 30.1399 55.25V44.97C30.1399 43.49 31.3399 42.29 32.8199 42.29H58.3799C59.8599 42.29 61.0599 43.49 61.0599 44.97V55.25C61.0599 56.73 59.8599 57.93 58.3799 57.93Z" stroke="#694633" stroke-width="0.5342" stroke-miterlimit="10" stroke-linecap="round" stroke-linejoin="round"/>
<path d="M36.72 46.85C37.17 46.78 37.75 46.71 38.5 46.71C39.42 46.71 40.09 46.92 40.51 47.31C40.9 47.65 41.14 48.17 41.14 48.81C41.14 49.46 40.95 49.97 40.59 50.35C40.1 50.87 39.3 51.14 38.39 51.14C38.11 51.14 37.86 51.13 37.64 51.08V53.96H36.71V46.85H36.72ZM37.65 50.31C37.85 50.36 38.11 50.38 38.42 50.38C39.54 50.38 40.22 49.84 40.22 48.84C40.22 47.89 39.55 47.43 38.52 47.43C38.11 47.43 37.81 47.46 37.65 47.5V50.31Z" fill="#694633"/>
<path d="M42.3899 46.86C42.9599 46.77 43.6299 46.71 44.3599 46.71C45.6899 46.71 46.6399 47.02 47.2699 47.61C47.9099 48.2 48.2799 49.03 48.2799 50.19C48.2799 51.36 47.9199 52.32 47.2499 52.98C46.5799 53.65 45.4699 54.01 44.0699 54.01C43.4099 54.01 42.8499 53.98 42.3899 53.92V46.86V46.86ZM43.3199 53.21C43.5499 53.25 43.8999 53.26 44.2599 53.26C46.2399 53.26 47.3199 52.15 47.3199 50.21C47.3299 48.51 46.3699 47.44 44.4099 47.44C43.9299 47.44 43.5699 47.48 43.3199 47.54V53.21V53.21Z" fill="#694633"/>
<path d="M49.49 46.76H53.36V47.54H50.42V49.93H53.14V50.7H50.42V53.95H49.49V46.76Z" fill="#694633"/>
</svg>
