<svg width="24" height="21" viewBox="0 0 24 21" fill="none" xmlns="http://www.w3.org/2000/svg">
<path d="M17.6442 7.74999L12.8992 0.643324C12.6933 0.339991 12.3467 0.188324 12 0.188324C11.6533 0.188324 11.3067 0.339991 11.1008 0.654157L6.35584 7.74999H1.16668C0.570843 7.74999 0.0833435 8.23749 0.0833435 8.83332C0.0833435 8.93082 0.0941768 9.02832 0.126677 9.12582L2.87834 19.1683C3.12751 20.0783 3.96168 20.75 4.95834 20.75H19.0417C20.0383 20.75 20.8725 20.0783 21.1325 19.1683L23.8842 9.12582L23.9167 8.83332C23.9167 8.23749 23.4292 7.74999 22.8333 7.74999H17.6442ZM8.75001 7.74999L12 2.98332L15.25 7.74999H8.75001ZM12 16.4167C10.8083 16.4167 9.83334 15.4417 9.83334 14.25C9.83334 13.0583 10.8083 12.0833 12 12.0833C13.1917 12.0833 14.1667 13.0583 14.1667 14.25C14.1667 15.4417 13.1917 16.4167 12 16.4167Z" fill="#694633"/>
</svg>
