<svg width="403" height="223" viewBox="0 0 403 223" fill="none" xmlns="http://www.w3.org/2000/svg">
<path d="M93.4322 193.041L0 180.582L57.503 105.854L93.4322 193.041Z" fill="#A4E5FF"/>
<path d="M129.67 0C111.258 0 96.3297 14.9356 96.3297 33.3561C96.3297 51.7766 111.258 66.7122 129.67 66.7122C148.082 66.7122 163.01 51.7766 163.01 33.3561C163.01 14.9356 148.088 0 129.67 0ZM129.67 58.0786C116.02 58.0786 104.959 47.0061 104.959 33.3561C104.959 19.6998 116.02 8.63364 129.67 8.63364C143.32 8.63364 154.381 19.6998 154.381 33.3561C154.387 47.0061 143.32 58.0786 129.67 58.0786Z" fill="#A4E5FF"/>
<path d="M369.49 215.476C360.47 215.476 355.733 211.285 351.922 207.913C348.609 204.983 346.215 202.865 340.981 202.865C335.752 202.865 333.353 204.983 330.039 207.913C326.235 211.285 321.492 215.476 312.472 215.476C303.452 215.476 298.715 211.285 294.904 207.913C291.591 204.983 289.197 202.865 283.963 202.865C278.734 202.865 276.335 204.983 273.021 207.913C269.217 211.278 264.474 215.476 255.46 215.476C246.44 215.476 241.703 211.285 237.892 207.913C234.579 204.983 232.185 202.865 226.951 202.865C224.192 202.865 221.949 200.622 221.949 197.862C221.949 195.095 224.192 192.858 226.951 192.858C235.971 192.858 240.708 197.049 244.519 200.42C247.832 203.351 250.225 205.468 255.454 205.468C260.682 205.468 263.075 203.351 266.389 200.42C270.193 197.049 274.936 192.858 283.956 192.858C292.976 192.858 297.713 197.049 301.524 200.42C304.837 203.351 307.231 205.468 312.465 205.468C317.693 205.468 320.093 203.351 323.4 200.42C327.205 197.049 331.948 192.858 340.968 192.858C349.988 192.858 354.725 197.049 358.536 200.42C361.849 203.351 364.243 205.468 369.477 205.468C374.711 205.468 377.105 203.351 380.418 200.42C384.223 197.055 388.966 192.858 397.986 192.858C400.745 192.858 402.987 195.101 402.987 197.862C402.987 200.622 400.745 202.865 397.986 202.865C392.752 202.865 390.358 204.983 387.045 207.913C383.253 211.285 378.51 215.476 369.49 215.476Z" fill="#A4E5FF"/>
<path d="M306.034 45.3235L328.244 23.1029C329.825 21.5211 329.825 18.9562 328.244 17.3744C326.663 15.7927 324.1 15.7927 322.518 17.3744L300.308 39.595L278.098 17.3744C276.517 15.7927 273.954 15.7927 272.373 17.3744C270.792 18.9562 270.792 21.5211 272.373 23.1029L294.583 45.3235L272.373 67.5441C270.792 69.1259 270.792 71.6908 272.373 73.2788C273.954 74.8606 276.517 74.8606 278.098 73.2788L300.308 51.0582L322.518 73.2788C324.1 74.8606 326.663 74.8606 328.244 73.2788C329.825 71.6971 329.825 69.1322 328.244 67.5441L306.034 45.3235Z" fill="#A4E5FF"/>
<path d="M140.07 210.995C167.432 203.893 199.928 215.488 229.263 221.79C261.74 228.766 292.504 204.617 293.55 171.4C294.438 143.293 315.268 148.77 327.684 110.517C334.108 70.4871 253.199 30.18 171.772 33.2679C18.456 50.5226 97.577 96.1989 90.9064 119.831C87.927 139.783 52.8293 150.427 41.9636 170.139C26.6383 200.137 57.7235 232.024 140.07 210.995Z" fill="#F3EACE"/>
<path d="M242.9 66.0316L158.639 116.825C157.669 117.411 156.396 117.096 155.817 116.126L122.256 60.3977C121.67 59.4272 121.985 58.1542 122.955 57.5744L207.216 6.7809C208.186 6.19482 209.459 6.50991 210.038 7.48041L243.599 63.2084C244.185 64.1726 243.87 65.4455 242.9 66.0316Z" fill="url(#paint0_linear)"/>
<path d="M183.495 80.9923C193.583 80.9923 201.762 72.8101 201.762 62.7167C201.762 52.6234 193.583 44.4412 183.495 44.4412C173.406 44.4412 165.228 52.6234 165.228 62.7167C165.228 72.8101 173.406 80.9923 183.495 80.9923Z" fill="white"/>
<path d="M190.827 56.9443L175.715 57.2278C175.079 57.2405 174.695 57.9337 175.022 58.4819L182.821 71.4324C183.148 71.9744 183.942 71.9618 184.25 71.4072L191.564 58.1731C191.872 57.6123 191.456 56.9317 190.827 56.9443Z" fill="url(#paint1_linear)"/>
<path d="M104.059 94.5415H270.489C280.001 94.5415 286.507 104.139 282.993 112.981L250.736 194.131C248.701 199.254 243.744 202.62 238.232 202.62H136.315C130.804 202.62 125.847 199.254 123.812 194.131L91.5551 112.981C88.0403 104.139 94.5471 94.5415 104.059 94.5415Z" fill="#D3B966"/>
<path d="M113.438 89.5L143.811 182.453" stroke="#694633" stroke-width="5" stroke-miterlimit="10" stroke-linecap="round" stroke-linejoin="round"/>
<path d="M144.718 89.5L166.632 164.178" stroke="#694633" stroke-width="5" stroke-miterlimit="10" stroke-linecap="round" stroke-linejoin="round"/>
<path d="M182.235 112.508H85.8608" stroke="#694633" stroke-width="5" stroke-miterlimit="10" stroke-linecap="round" stroke-linejoin="round"/>
<path d="M174.676 136.456H94.6794" stroke="#694633" stroke-width="5" stroke-miterlimit="10" stroke-linecap="round" stroke-linejoin="round"/>
<path d="M96.5439 89.5H260.354C270.489 89.5 277.431 99.7343 273.683 109.156L242.131 188.529C239.958 193.992 234.68 197.578 228.803 197.578H128.102C122.225 197.578 116.946 193.992 114.773 188.529L83.2216 109.156C79.4674 99.7343 86.4089 89.5 96.5439 89.5Z" stroke="#694633" stroke-width="5" stroke-miterlimit="10" stroke-linecap="round" stroke-linejoin="round"/>
<path d="M123.075 89.5L176.478 6.31458L233.829 89.5" stroke="#694633" stroke-width="5" stroke-miterlimit="10" stroke-linecap="round" stroke-linejoin="round"/>
<defs>
<linearGradient id="paint0_linear" x1="139.026" y1="88.2575" x2="226.831" y2="35.3741" gradientUnits="userSpaceOnUse">
<stop stop-color="#0A62F9"/>
<stop offset="1" stop-color="#45B4D3"/>
</linearGradient>
<linearGradient id="paint1_linear" x1="178.846" y1="65.0129" x2="191.459" y2="57.1957" gradientUnits="userSpaceOnUse">
<stop stop-color="#0A62F9"/>
<stop offset="1" stop-color="#45B4D3"/>
</linearGradient>
</defs>
</svg>
