<svg width="396" height="219" viewBox="0 0 396 219" fill="none" xmlns="http://www.w3.org/2000/svg">
<path d="M91.8093 189.578L0 177.343L56.5042 103.955L91.8093 189.578Z" fill="#A4E5FF"/>
<path d="M127.418 0C109.326 0 94.6565 14.6677 94.6565 32.7578C94.6565 50.8479 109.326 65.5156 127.418 65.5156C145.51 65.5156 160.179 50.8479 160.179 32.7578C160.179 14.6677 145.516 0 127.418 0ZM127.418 57.0368C114.005 57.0368 103.136 46.1629 103.136 32.7578C103.136 19.3465 114.005 8.47878 127.418 8.47878C140.83 8.47878 151.699 19.3465 151.699 32.7578C151.705 46.1629 140.83 57.0368 127.418 57.0368Z" fill="#A4E5FF"/>
<path d="M363.072 174.477C354.208 174.477 349.554 170.361 345.809 167.05C342.553 164.173 340.201 162.093 335.058 162.093C329.921 162.093 327.562 164.173 324.307 167.05C320.568 170.361 315.908 174.477 307.044 174.477C298.181 174.477 293.526 170.361 289.782 167.05C286.526 164.173 284.174 162.093 279.03 162.093C273.893 162.093 271.535 164.173 268.279 167.05C264.541 170.355 259.88 174.477 251.023 174.477C242.159 174.477 237.505 170.361 233.76 167.05C230.504 164.173 228.152 162.093 223.009 162.093C220.298 162.093 218.094 159.89 218.094 157.179C218.094 154.462 220.298 152.265 223.009 152.265C231.872 152.265 236.527 156.381 240.271 159.692C243.527 162.57 245.879 164.649 251.016 164.649C256.154 164.649 258.506 162.57 261.762 159.692C265.5 156.381 270.161 152.265 279.024 152.265C287.888 152.265 292.542 156.381 296.287 159.692C299.542 162.57 301.894 164.649 307.038 164.649C312.175 164.649 314.533 162.57 317.783 159.692C321.521 156.381 326.182 152.265 335.046 152.265C343.909 152.265 348.564 156.381 352.308 159.692C355.564 162.57 357.916 164.649 363.059 164.649C368.203 164.649 370.555 162.57 373.811 159.692C377.549 156.387 382.21 152.265 391.073 152.265C393.784 152.265 395.988 154.468 395.988 157.179C395.988 159.89 393.784 162.093 391.073 162.093C385.93 162.093 383.578 164.173 380.322 167.05C376.596 170.361 371.935 174.477 363.072 174.477Z" fill="#A4E5FF"/>
<path d="M137.637 207.21C164.524 200.235 196.456 211.623 225.28 217.812C257.194 224.663 287.423 200.947 288.451 168.325C289.323 140.723 309.792 146.101 321.992 108.535C328.305 69.2227 248.801 29.6386 168.789 32.6712C18.1354 49.6163 95.8821 94.4734 89.3274 117.682C86.3997 137.276 51.9117 147.729 41.2347 167.088C26.1756 196.547 56.7209 227.863 137.637 207.21Z" fill="#F3EACE"/>
<path d="M183.402 107.08L363.691 53.8L226.029 32.4855L217.147 53.8H310.405L205.604 75.1145L183.402 107.08Z" fill="#E0DDD7"/>
<path d="M217.593 54.2456L224.16 71.3393C224.16 71.3393 310.844 55.1306 310.844 54.2456C310.844 53.3544 217.593 54.2456 217.593 54.2456Z" fill="#EDDDA4"/>
<path d="M226.667 94.2939L237.133 106.635L364.136 54.2456L226.667 94.2939Z" fill="#EDDDA4"/>
<path d="M160.191 135.549C160.191 135.549 162.048 134.887 165.199 133.934" stroke="#694633" stroke-width="5" stroke-linecap="square" stroke-linejoin="bevel" stroke-dasharray="10 15"/>
<path d="M175.164 131.26C197.229 126.037 236.415 121.358 241.268 152.259C248.572 198.731 179.515 192.233 137.903 178.252C105.742 167.447 82.816 116.982 115.002 88.5135C135.514 70.3676 165.657 68.6409 181.366 69.1546" stroke="#694633" stroke-width="5" stroke-linecap="square" stroke-linejoin="bevel" stroke-dasharray="10 15"/>
<path d="M186.522 69.4269C189.833 69.6682 191.752 69.9467 191.752 69.9467" stroke="#694633" stroke-width="5" stroke-linecap="square" stroke-linejoin="bevel" stroke-dasharray="10 15"/>
<path d="M183.402 102.748L363.691 49.4678L226.029 28.1533L217.147 49.4678H310.405L205.604 70.7824L183.402 102.748Z" stroke="#694633" stroke-width="5" stroke-miterlimit="10" stroke-linecap="round" stroke-linejoin="round"/>
<path d="M217.593 49.9134L224.16 67.0071C224.16 67.0071 310.844 50.7984 310.844 49.9134C310.844 49.0222 217.593 49.9134 217.593 49.9134Z" stroke="#694633" stroke-width="5" stroke-miterlimit="10" stroke-linecap="round" stroke-linejoin="round"/>
<path d="M226.667 89.9616L237.133 102.302L364.136 49.9133L226.667 89.9616Z" stroke="#694633" stroke-width="5" stroke-miterlimit="10" stroke-linecap="round" stroke-linejoin="round"/>
</svg>
