<svg width="403" height="204" viewBox="0 0 403 204" fill="none" xmlns="http://www.w3.org/2000/svg">
<g clip-path="url(#clip0)">
<path d="M38.3701 200.79L0.500058 123.74C-1.11994 120.45 1.43006 116.64 5.09006 116.88L90.7501 122.6C94.4101 122.84 96.4301 126.96 94.3901 130.01L46.6001 201.34C44.5601 204.39 39.9901 204.08 38.3701 200.79Z" fill="#A4E5FF"/>
<path d="M59.29 0.400024C39.3 0.400024 23.09 16.61 23.09 36.6C23.09 56.59 39.3 72.8 59.29 72.8C79.28 72.8 95.49 56.59 95.49 36.6C95.49 16.61 79.28 0.400024 59.29 0.400024ZM59.29 63.44C44.47 63.44 32.46 51.43 32.46 36.61C32.46 21.79 44.47 9.78002 59.29 9.78002C74.11 9.78002 86.12 21.79 86.12 36.61C86.12 51.42 74.11 63.44 59.29 63.44Z" fill="#A4E5FF"/>
<path d="M366.59 174.54C356.79 174.54 351.65 169.99 347.51 166.33C343.91 163.15 341.31 160.85 335.63 160.85C329.95 160.85 327.35 163.15 323.75 166.33C319.62 169.99 314.47 174.54 304.68 174.54C294.89 174.54 289.74 169.99 285.61 166.33C282.01 163.15 279.41 160.85 273.73 160.85C268.05 160.85 265.45 163.15 261.85 166.33C257.72 169.99 252.57 174.54 242.78 174.54C232.98 174.54 227.84 169.99 223.71 166.33C220.11 163.15 217.51 160.85 211.83 160.85C208.83 160.85 206.4 158.42 206.4 155.42C206.4 152.42 208.83 149.99 211.83 149.99C221.63 149.99 226.77 154.54 230.9 158.2C234.5 161.38 237.1 163.68 242.78 163.68C248.46 163.68 251.06 161.38 254.66 158.2C258.79 154.54 263.94 149.99 273.73 149.99C283.53 149.99 288.67 154.54 292.81 158.2C296.41 161.38 299.01 163.68 304.69 163.68C310.37 163.68 312.97 161.38 316.57 158.2C320.7 154.54 325.85 149.99 335.64 149.99C345.44 149.99 350.58 154.54 354.72 158.2C358.32 161.38 360.92 163.68 366.6 163.68C372.28 163.68 374.88 161.38 378.48 158.2C382.61 154.54 387.76 149.99 397.56 149.99C400.56 149.99 402.99 152.42 402.99 155.42C402.99 158.42 400.56 160.85 397.56 160.85C391.88 160.85 389.28 163.15 385.68 166.33C381.53 169.99 376.38 174.54 366.59 174.54Z" fill="#A4E5FF"/>
<path d="M325.68 49.86L349.8 25.74C351.52 24.02 351.52 21.24 349.8 19.52C348.08 17.8 345.3 17.8 343.58 19.52L319.46 43.64L295.34 19.52C293.62 17.8 290.84 17.8 289.12 19.52C287.4 21.24 287.4 24.02 289.12 25.74L313.24 49.86L289.12 73.98C287.4 75.7 287.4 78.48 289.12 80.2C290.84 81.92 293.62 81.92 295.34 80.2L319.46 56.08L343.58 80.2C345.3 81.92 348.08 81.92 349.8 80.2C351.52 78.48 351.52 75.7 349.8 73.98L325.68 49.86Z" fill="#A4E5FF"/>
<path d="M105.03 163.52C136.07 158.02 172.93 167 206.2 171.88C243.04 177.28 277.93 158.59 279.12 132.87C280.13 111.11 303.75 115.35 317.84 85.74C328.1 53.73 300.99 35.88 272.02 31.77C236.57 26.75 187.09 54.87 141.37 49.51C108.51 45.66 91.14 11.22 52.4 27.98C18 42.86 46.95 80.8 42.38 91.86C39 107.3 25.9 117.47 13.58 132.73C-3.80998 155.95 11.63 179.8 105.03 163.52Z" fill="#F3EACE"/>
<path d="M165.7 17.74C119.66 17.74 82.33 55.07 82.33 101.11C82.33 147.15 119.66 184.48 165.7 184.48C211.74 184.48 249.07 147.15 249.07 101.11C249.07 55.07 211.74 17.74 165.7 17.74ZM165.7 140.6C143.89 140.6 126.21 122.92 126.21 101.11C126.21 79.3 143.89 61.62 165.7 61.62C187.51 61.62 205.19 79.3 205.19 101.11C205.19 122.92 187.51 140.6 165.7 140.6Z" fill="#D3B966"/>
<path d="M160.49 14.23C114.45 14.23 77.12 51.56 77.12 97.6C77.12 143.64 114.45 180.97 160.49 180.97C206.53 180.97 243.86 143.64 243.86 97.6C243.86 51.56 206.54 14.23 160.49 14.23ZM160.49 137.09C138.68 137.09 121 119.41 121 97.6C121 75.79 138.68 58.11 160.49 58.11C182.3 58.11 199.98 75.79 199.98 97.6C199.98 119.41 182.3 137.09 160.49 137.09Z" stroke="#694633" stroke-width="4" stroke-miterlimit="10" stroke-linecap="round" stroke-linejoin="round"/>
<path d="M89.7 45.72C89.7 45.72 73.4 41.93 67.45 58.62C64.66 66.45 70.76 78.78 70.76 98.11C70.76 116.95 64.69 129.4 67.54 137.6C73.85 155.77 90.99 153.14 90.99 153.14" stroke="url(#paint0_linear)" stroke-width="4" stroke-miterlimit="10"/>
<path d="M238.37 45.72C238.37 45.72 254.67 41.93 260.62 58.62C263.41 66.45 257.31 78.78 257.31 98.11C257.31 116.95 263.38 129.4 260.53 137.6C254.22 155.77 237.08 153.14 237.08 153.14" stroke="url(#paint1_linear)" stroke-width="4" stroke-miterlimit="10"/>
<path d="M216.6 24.98C216.6 24.98 220.39 8.67999 203.7 2.72999C195.87 -0.0600069 183.54 6.03999 164.21 6.03999C145.37 6.03999 132.92 -0.0300069 124.72 2.81999C106.55 9.12999 109.18 26.27 109.18 26.27" stroke="url(#paint2_linear)" stroke-width="4" stroke-miterlimit="10"/>
<path d="M216.6 173.65C216.6 173.65 220.39 189.95 203.7 195.9C195.87 198.69 183.54 192.59 164.21 192.59C145.37 192.59 132.92 198.66 124.72 195.81C106.55 189.5 109.18 172.36 109.18 172.36" stroke="url(#paint3_linear)" stroke-width="4" stroke-miterlimit="10"/>
<path d="M94.98 37.28L99.76 32.5C105.52 26.74 114.95 26.74 120.71 32.5L142.23 54.02C147.99 59.78 147.99 69.21 142.23 74.97L137.45 79.75C131.69 85.51 122.26 85.51 116.5 79.75L94.98 58.22C89.22 52.46 89.22 43.04 94.98 37.28Z" fill="#F6F3E9"/>
<path d="M183.1 124.99L187.48 120.61C193.35 114.74 202.96 114.74 208.83 120.61L231.48 143.26C237.35 149.13 237.35 158.74 231.48 164.61L227.1 168.99C221.23 174.86 211.62 174.86 205.75 168.99L183.1 146.34C177.23 140.47 177.23 130.86 183.1 124.99Z" fill="#F6F3E9"/>
<path d="M100.88 168.04L96.28 163.44C90.47 157.63 90.47 148.12 96.28 142.32L118.29 120.31C124.1 114.5 133.61 114.5 139.41 120.31L144.01 124.91C149.82 130.72 149.82 140.23 144.01 146.03L122 168.04C116.2 173.85 106.69 173.85 100.88 168.04Z" fill="#F6F3E9"/>
<path d="M189.26 79.26L185.07 75.07C179.15 69.15 179.15 59.46 185.07 53.54L208.25 30.36C214.17 24.44 223.86 24.44 229.78 30.36L233.97 34.55C239.89 40.47 239.89 50.16 233.97 56.08L210.79 79.26C204.87 85.18 195.18 85.18 189.26 79.26Z" fill="#F6F3E9"/>
<path d="M95.98 41.28L100.76 36.5C106.52 30.74 115.95 30.74 121.71 36.5L143.23 58.02C148.99 63.78 148.99 73.21 143.23 78.97L138.45 83.75C132.69 89.51 123.26 89.51 117.5 83.75L95.98 62.22C90.22 56.46 90.22 47.04 95.98 41.28Z" fill="#939290"/>
<path d="M184.1 128.99L188.48 124.61C194.35 118.74 203.96 118.74 209.83 124.61L232.48 147.26C238.35 153.13 238.35 162.74 232.48 168.61L228.1 172.99C222.23 178.86 212.62 178.86 206.75 172.99L184.1 150.34C178.23 144.47 178.23 134.86 184.1 128.99Z" fill="#939290"/>
<path d="M101.88 172.04L97.28 167.44C91.47 161.63 91.47 152.12 97.28 146.32L119.29 124.31C125.1 118.5 134.61 118.5 140.41 124.31L145.01 128.91C150.82 134.72 150.82 144.23 145.01 150.03L123 172.04C117.2 177.85 107.69 177.85 101.88 172.04Z" fill="#939290"/>
<path d="M190.26 83.26L186.07 79.07C180.15 73.15 180.15 63.46 186.07 57.54L209.25 34.36C215.17 28.44 224.86 28.44 230.78 34.36L234.97 38.55C240.89 44.47 240.89 54.16 234.97 60.08L211.79 83.26C205.87 89.18 196.18 89.18 190.26 83.26Z" fill="#939290"/>
<path d="M93.98 36.28L98.76 31.5C104.52 25.74 113.95 25.74 119.71 31.5L141.23 53.02C146.99 58.78 146.99 68.21 141.23 73.97L136.45 78.75C130.69 84.51 121.26 84.51 115.5 78.75L93.98 57.22C88.22 51.46 88.22 42.04 93.98 36.28Z" stroke="#694633" stroke-width="4" stroke-miterlimit="10" stroke-linecap="round" stroke-linejoin="round"/>
<path d="M182.1 123.99L186.48 119.61C192.35 113.74 201.96 113.74 207.83 119.61L230.48 142.26C236.35 148.13 236.35 157.74 230.48 163.61L226.1 167.99C220.23 173.86 210.62 173.86 204.75 167.99L182.1 145.34C176.23 139.47 176.23 129.86 182.1 123.99Z" stroke="#694633" stroke-width="4" stroke-miterlimit="10" stroke-linecap="round" stroke-linejoin="round"/>
<path d="M99.88 167.04L95.28 162.44C89.47 156.63 89.47 147.12 95.28 141.32L117.29 119.31C123.1 113.5 132.61 113.5 138.41 119.31L143.01 123.91C148.82 129.72 148.82 139.23 143.01 145.03L121 167.04C115.2 172.85 105.69 172.85 99.88 167.04Z" stroke="#694633" stroke-width="4" stroke-miterlimit="10" stroke-linecap="round" stroke-linejoin="round"/>
<path d="M188.26 78.26L184.07 74.07C178.15 68.15 178.15 58.46 184.07 52.54L207.25 29.36C213.17 23.44 222.86 23.44 228.78 29.36L232.97 33.55C238.89 39.47 238.89 49.16 232.97 55.08L209.79 78.26C203.87 84.18 194.18 84.18 188.26 78.26Z" stroke="#694633" stroke-width="4" stroke-miterlimit="10" stroke-linecap="round" stroke-linejoin="round"/>
</g>
<defs>
<linearGradient id="paint0_linear" x1="64.719" y1="99.3164" x2="91.2854" y2="99.3164" gradientUnits="userSpaceOnUse">
<stop stop-color="#0A62F9"/>
<stop offset="1" stop-color="#45B4D3"/>
</linearGradient>
<linearGradient id="paint1_linear" x1="236.785" y1="99.3164" x2="263.352" y2="99.3164" gradientUnits="userSpaceOnUse">
<stop stop-color="#0A62F9"/>
<stop offset="1" stop-color="#45B4D3"/>
</linearGradient>
<linearGradient id="paint2_linear" x1="107.042" y1="13.2832" x2="218.966" y2="13.2832" gradientUnits="userSpaceOnUse">
<stop stop-color="#0A62F9"/>
<stop offset="1" stop-color="#45B4D3"/>
</linearGradient>
<linearGradient id="paint3_linear" x1="107.042" y1="185.349" x2="218.966" y2="185.349" gradientUnits="userSpaceOnUse">
<stop stop-color="#0A62F9"/>
<stop offset="1" stop-color="#45B4D3"/>
</linearGradient>
<clipPath id="clip0">
<rect width="402.98" height="203.46" fill="white"/>
</clipPath>
</defs>
</svg>
