<svg width="433" height="220" viewBox="0 0 433 220" fill="none" xmlns="http://www.w3.org/2000/svg">
<path d="M101.46 173.24L0 159.72L62.44 78.61L101.46 173.24Z" fill="#A4E5FF"/>
<path d="M166.61 0C146.62 0 130.41 16.21 130.41 36.2C130.41 56.19 146.62 72.4 166.61 72.4C186.6 72.4 202.81 56.19 202.81 36.2C202.81 16.21 186.6 0 166.61 0ZM166.61 63.04C151.79 63.04 139.78 51.03 139.78 36.21C139.78 21.39 151.79 9.38 166.61 9.38C181.43 9.38 193.44 21.39 193.44 36.21C193.44 51.02 181.43 63.04 166.61 63.04Z" fill="#A4E5FF"/>
<path d="M396.33 172.34C386.53 172.34 381.39 167.79 377.25 164.13C373.65 160.95 371.05 158.65 365.37 158.65C359.69 158.65 357.09 160.95 353.49 164.13C349.36 167.79 344.21 172.34 334.42 172.34C324.63 172.34 319.48 167.79 315.35 164.13C311.75 160.95 309.15 158.65 303.47 158.65C297.79 158.65 295.19 160.95 291.59 164.13C287.46 167.79 282.31 172.34 272.52 172.34C262.72 172.34 257.58 167.79 253.45 164.13C249.85 160.95 247.25 158.65 241.57 158.65C238.57 158.65 236.14 156.22 236.14 153.22C236.14 150.22 238.57 147.79 241.57 147.79C251.37 147.79 256.51 152.34 260.64 156C264.24 159.18 266.84 161.48 272.52 161.48C278.2 161.48 280.8 159.18 284.4 156C288.53 152.34 293.68 147.79 303.47 147.79C313.27 147.79 318.41 152.34 322.55 156C326.15 159.18 328.75 161.48 334.43 161.48C340.11 161.48 342.71 159.18 346.31 156C350.44 152.34 355.59 147.79 365.38 147.79C375.18 147.79 380.32 152.34 384.46 156C388.06 159.18 390.66 161.48 396.34 161.48C402.02 161.48 404.62 159.18 408.22 156C412.35 152.34 417.5 147.79 427.3 147.79C430.3 147.79 432.73 150.22 432.73 153.22C432.73 156.22 430.3 158.65 427.3 158.65C421.62 158.65 419.02 160.95 415.42 164.13C411.27 167.79 406.12 172.34 396.33 172.34Z" fill="#A4E5FF"/>
<path d="M355.42 47.65L379.54 23.53C381.26 21.81 381.26 19.03 379.54 17.31C377.82 15.59 375.04 15.59 373.32 17.31L349.2 41.43L325.08 17.31C323.36 15.59 320.58 15.59 318.86 17.31C317.14 19.03 317.14 21.81 318.86 23.53L342.98 47.65L318.86 71.77C317.14 73.49 317.14 76.27 318.86 77.99C320.58 79.71 323.36 79.71 325.08 77.99L349.2 53.87L373.32 77.99C375.04 79.71 377.82 79.71 379.54 77.99C381.26 76.27 381.26 73.49 379.54 71.77L355.42 47.65Z" fill="#A4E5FF"/>
<path d="M134.77 161.31C165.81 155.81 202.67 164.79 235.94 169.67C272.78 175.07 307.67 156.38 308.86 130.66C309.87 108.9 333.49 113.14 347.58 83.53C357.84 51.52 330.73 33.67 301.76 29.56C266.31 24.54 216.83 52.66 171.11 47.3C138.25 43.45 120.88 9.01 82.14 25.77C47.74 40.65 76.69 78.59 72.12 89.65C68.74 105.1 55.64 115.26 43.32 130.52C25.93 153.74 41.37 177.59 134.77 161.31Z" fill="#F3EACE"/>
<path d="M117.16 83.65C117.16 75.6 110.57 69.01 102.52 69.01C94.47 69.01 87.88 75.6 87.88 83.65C87.88 89.16 90.97 93.99 95.5 96.48V110.76C95.5 113.07 97.39 114.97 99.71 114.97H105.33C107.64 114.97 109.54 113.08 109.54 110.76V96.49C114.07 93.99 117.16 89.17 117.16 83.65Z" fill="#939290"/>
<path d="M112.34 81.65C112.34 73.6 105.75 67.01 97.7001 67.01C89.6501 67.01 83.0601 73.6 83.0601 81.65C83.0601 87.16 86.1501 91.99 90.6801 94.48V108.76C90.6801 111.07 92.5701 112.97 94.8901 112.97H100.51C102.82 112.97 104.72 111.08 104.72 108.76V94.49C109.25 91.99 112.34 87.17 112.34 81.65Z" stroke="#694633" stroke-width="4" stroke-miterlimit="10" stroke-linecap="round" stroke-linejoin="round"/>
<path d="M222.85 110.34C221.06 120.58 211.31 127.44 201.07 125.65C193 124.24 187.03 117.89 185.74 110.24L142.29 102.66L141.37 107.96L136.95 107.19L137.87 101.89L132.57 100.97L131.49 107.15L122.66 105.61L125.89 87.07L187.88 97.88C191.68 91.12 199.45 87.16 207.52 88.57C217.78 90.34 224.63 100.09 222.85 110.34Z" fill="#F3EACE"/>
<path d="M210.58 87.8403C200.54 86.0988 190.873 90.9897 186.145 99.3388L109.019 86L105 108.898L115.986 110.8L117.33 103.168L123.924 104.304L122.779 110.85L128.278 111.801L129.423 105.255L183.482 114.617C185.087 124.065 192.515 131.908 202.555 133.649C215.296 135.86 227.426 127.387 229.653 114.74C231.856 102.093 223.333 90.0511 210.58 87.8403ZM220.198 113.666C219.451 117.877 215.408 120.706 211.165 119.965C206.922 119.224 204.073 115.21 204.82 110.998C205.566 106.786 209.61 103.958 213.852 104.699C218.095 105.44 220.932 109.454 220.198 113.666Z" fill="#D3B966"/>
<path d="M209.08 114.66C212.543 114.66 215.35 111.853 215.35 108.39C215.35 104.927 212.543 102.12 209.08 102.12C205.617 102.12 202.81 104.927 202.81 108.39C202.81 111.853 205.617 114.66 209.08 114.66Z" stroke="#694633" stroke-width="4" stroke-miterlimit="10" stroke-linecap="round" stroke-linejoin="round"/>
<path d="M224.65 108.339C222.423 121.25 210.293 129.899 197.553 127.642C187.512 125.864 180.085 117.858 178.48 108.213L131.862 100.156L130.718 106.839L120.901 104.809L122.046 98.1265L112.329 96.5252L110.986 104.317L100 102.375L104.019 79L181.143 92.6293C185.87 84.1063 195.537 79.1135 205.577 80.8912C218.342 83.1228 226.864 95.4157 224.65 108.339Z" stroke="#694633" stroke-width="4" stroke-miterlimit="10" stroke-linecap="round" stroke-linejoin="round"/>
<path d="M323.731 210.418L263.2 219.924C259.797 220.452 256.581 218.17 256.031 214.834L252.077 190.61C251.539 187.273 253.866 184.121 257.27 183.582L317.8 174.076C321.203 173.548 324.419 175.83 324.969 179.166L328.923 203.39C329.461 206.727 327.121 209.891 323.731 210.418Z" fill="#D3B966"/>
<path d="M296.005 42.4507C292.736 42.9736 290.164 45.2022 289.033 48.0782L287.243 36.9228C286.099 29.8013 279.4 24.9458 272.291 26.0787C267.108 26.9129 263.106 30.6604 261.788 35.516L260.582 27.9587C259.451 20.8746 252.777 16.0315 245.705 17.1644C238.633 18.2974 233.798 24.9831 234.929 32.0673L240.485 66.7783L203.608 72.6921C198.226 73.5512 194.547 78.6433 195.417 84.0342L198.524 103.481C199.382 108.872 204.465 112.558 209.847 111.698C215.229 110.839 218.908 105.747 218.038 100.356L216.658 91.6911L219.169 91.2926C221.232 90.9565 223.183 92.3758 223.507 94.4425L227.099 116.94C224.973 114.263 220.387 111.337 210.655 112.894C195.84 115.272 194.224 124.522 194.062 126.365L194 127.074L250.366 167.948L252.292 180L312.362 170.339L310.634 159.532L314.748 153.83C319.074 147.841 320.814 140.533 319.645 133.237L306.321 49.9457C305.551 45.0279 300.915 41.6663 296.005 42.4507Z" fill="#F6F3E9"/>
<path d="M302.005 43.4507C298.736 43.9736 296.164 46.2022 295.033 49.0782L293.243 37.9228C292.099 30.8013 285.4 25.9458 278.291 27.0787C273.108 27.9129 269.106 31.6604 267.788 36.516L266.582 28.9587C265.451 21.8746 258.777 17.0315 251.705 18.1644C244.633 19.2974 239.798 25.9831 240.929 33.0673L246.485 67.7783L209.608 73.6921C204.226 74.5512 200.547 79.6433 201.417 85.0342L204.524 104.481C205.382 109.872 210.465 113.558 215.847 112.698C221.229 111.839 224.908 106.747 224.038 101.356L222.658 92.6911L225.169 92.2926C227.232 91.9565 229.183 93.3758 229.507 95.4425L233.099 117.94C230.973 115.263 226.387 112.337 216.655 113.894C201.84 116.272 200.224 125.522 200.062 127.365L200 128.074L256.366 168.948L258.292 181L318.362 171.339L316.634 160.532L320.748 154.83C325.074 148.841 326.814 141.533 325.645 134.237L312.321 50.9457C311.551 46.0279 306.915 42.6663 302.005 43.4507Z" fill="#E0DDD7"/>
<path d="M316.73 205.21L256.2 214.923C252.797 215.461 249.581 213.13 249.031 209.722L245.077 184.971C244.539 181.562 246.866 178.341 250.27 177.79L310.8 168.077C314.203 167.539 317.419 169.87 317.969 173.278L321.923 198.029C322.461 201.438 320.134 204.659 316.73 205.21Z" stroke="#694633" stroke-width="4" stroke-miterlimit="10" stroke-linecap="round" stroke-linejoin="round"/>
<path d="M269.935 92L261.163 39.3635C260.041 32.6073 264.827 26.2477 271.857 25.1568C278.887 24.0783 285.504 28.6775 286.639 35.4337L289 49.628" stroke="#694633" stroke-width="4" stroke-miterlimit="10" stroke-linecap="round" stroke-linejoin="round"/>
<path d="M245.74 96L235.158 30.3895C234.07 23.621 238.71 17.25 245.527 16.1571C252.344 15.0766 258.76 19.6841 259.861 26.4526L263 45.9134" stroke="#694633" stroke-width="4" stroke-miterlimit="10" stroke-linecap="round" stroke-linejoin="round"/>
<path d="M241 66L202.972 72.0004C197.808 72.822 194.298 77.6024 195.119 82.6941L198.275 102.139C199.109 107.231 203.957 110.692 209.121 109.883C214.285 109.061 217.794 104.281 216.974 99.189L215.471 89.9643" stroke="#694633" stroke-width="4" stroke-miterlimit="10" stroke-linecap="round" stroke-linejoin="round"/>
<path d="M208 90.728L218.322 89.057C220.671 88.6704 222.873 90.2916 223.255 92.6734L229 129" stroke="#694633" stroke-width="4" stroke-miterlimit="10" stroke-linecap="round" stroke-linejoin="round"/>
<path d="M227.697 119.208C227.697 119.208 226.115 109.322 210.132 111.9C194.149 114.478 194 125.24 194 125.24L250.406 166.249L252.275 178L311.26 168.489L309.59 157.99L313.863 152.058C318.074 146.227 319.793 138.943 318.659 131.835L305.305 48.1155C304.57 43.5103 300.26 40.3692 295.676 41.1076C291.091 41.8459 287.965 46.1758 288.7 50.781L294.654 88.1608" stroke="#694633" stroke-width="4" stroke-miterlimit="10" stroke-linecap="round" stroke-linejoin="round"/>
</svg>
