<svg width="27" height="25" viewBox="0 0 27 25" fill="none" xmlns="http://www.w3.org/2000/svg">
<path d="M17.6442 11.75L12.8992 4.64332C12.6933 4.33999 12.3467 4.18832 12 4.18832C11.6533 4.18832 11.3067 4.33999 11.1008 4.65416L6.35584 11.75H1.16668C0.570843 11.75 0.0833435 12.2375 0.0833435 12.8333C0.0833435 12.9308 0.0941768 13.0283 0.126677 13.1258L2.87834 23.1683C3.12751 24.0783 3.96168 24.75 4.95834 24.75H19.0417C20.0383 24.75 20.8725 24.0783 21.1325 23.1683L23.8842 13.1258L23.9167 12.8333C23.9167 12.2375 23.4292 11.75 22.8333 11.75H17.6442ZM8.75001 11.75L12 6.98332L15.25 11.75H8.75001ZM12 20.4167C10.8083 20.4167 9.83334 19.4417 9.83334 18.25C9.83334 17.0583 10.8083 16.0833 12 16.0833C13.1917 16.0833 14.1667 17.0583 14.1667 18.25C14.1667 19.4417 13.1917 20.4167 12 20.4167Z" fill="#694633"/>
<rect x="15" y="1" width="11" height="11" rx="5.5" fill="#5093DC" stroke="url(#paint0_linear)"/>
<defs>
<linearGradient id="paint0_linear" x1="27.1874" y1="-4.94056" x2="13.9695" y2="-4.94056" gradientUnits="userSpaceOnUse">
<stop stop-color="#FAF4E5"/>
<stop offset="1" stop-color="white"/>
</linearGradient>
</defs>
</svg>
