<svg width="403" height="223" viewBox="0 0 403 223" fill="none" xmlns="http://www.w3.org/2000/svg">
<path d="M93.4322 193.041L0 180.582L57.503 105.854L93.4322 193.041Z" fill="#A4E5FF"/>
<path d="M129.67 0C111.258 0 96.3297 14.9356 96.3297 33.3561C96.3297 51.7766 111.258 66.7122 129.67 66.7122C148.082 66.7122 163.01 51.7766 163.01 33.3561C163.01 14.9356 148.088 0 129.67 0ZM129.67 58.0786C116.02 58.0786 104.959 47.0061 104.959 33.3561C104.959 19.6998 116.02 8.63364 129.67 8.63364C143.32 8.63364 154.381 19.6998 154.381 33.3561C154.387 47.0061 143.32 58.0786 129.67 58.0786Z" fill="#A4E5FF"/>
<path d="M369.49 177.664C360.47 177.664 355.733 173.473 351.922 170.102C348.609 167.171 346.215 165.054 340.981 165.054C335.752 165.054 333.353 167.171 330.039 170.102C326.235 173.473 321.492 177.664 312.472 177.664C303.451 177.664 298.715 173.473 294.904 170.102C291.591 167.171 289.197 165.054 283.963 165.054C278.734 165.054 276.335 167.171 273.021 170.102C269.217 173.467 264.474 177.664 255.46 177.664C246.44 177.664 241.703 173.473 237.892 170.102C234.579 167.171 232.185 165.054 226.951 165.054C224.192 165.054 221.949 162.81 221.949 160.05C221.949 157.283 224.192 155.046 226.951 155.046C235.971 155.046 240.708 159.237 244.519 162.609C247.832 165.539 250.225 167.656 255.454 167.656C260.682 167.656 263.075 165.539 266.389 162.609C270.193 159.237 274.936 155.046 283.956 155.046C292.976 155.046 297.713 159.237 301.524 162.609C304.837 165.539 307.231 167.656 312.465 167.656C317.693 167.656 320.093 165.539 323.4 162.609C327.205 159.237 331.948 155.046 340.968 155.046C349.988 155.046 354.725 159.237 358.536 162.609C361.849 165.539 364.243 167.656 369.477 167.656C374.711 167.656 377.105 165.539 380.418 162.609C384.223 159.243 388.966 155.046 397.986 155.046C400.745 155.046 402.987 157.29 402.987 160.05C402.987 162.81 400.745 165.054 397.986 165.054C392.752 165.054 390.358 167.171 387.045 170.102C383.253 173.473 378.51 177.664 369.49 177.664Z" fill="#A4E5FF"/>
<path d="M140.07 210.995C167.432 203.893 199.928 215.488 229.263 221.79C261.74 228.766 292.504 204.617 293.55 171.4C294.438 143.293 315.268 148.77 327.684 110.517C334.108 70.4871 253.199 30.18 171.772 33.2679C18.456 50.5226 97.577 96.1989 90.9064 119.831C87.927 139.783 52.8293 150.427 41.9636 170.139C26.6383 200.137 57.7235 232.024 140.07 210.995Z" fill="#F3EACE"/>
<path d="M278.634 175.37L118.899 186.266C117.059 186.392 115.453 184.987 115.327 183.153L108.128 77.501C108.002 75.6609 109.406 74.0539 111.239 73.9278L270.974 63.0318C272.813 62.9057 274.42 64.3111 274.546 66.1449L281.745 171.797C281.871 173.637 280.473 175.244 278.634 175.37Z" fill="#D3B966"/>
<path d="M273.594 170.328L113.86 181.224C112.02 181.351 110.414 179.945 110.288 178.111L103.088 72.4595C102.962 70.6193 104.367 69.0124 106.2 68.8863L265.935 57.9903C267.774 57.8642 269.38 59.2696 269.506 61.1034L276.706 166.755C276.832 168.595 275.434 170.202 273.594 170.328Z" stroke="#694633" stroke-width="5" stroke-miterlimit="10" stroke-linecap="round" stroke-linejoin="round"/>
<path d="M193.189 154.889C209.609 154.889 222.92 141.571 222.92 125.144C222.92 108.716 209.609 95.3986 193.189 95.3986C176.769 95.3986 163.458 108.716 163.458 125.144C163.458 141.571 176.769 154.889 193.189 154.889Z" fill="#EDDDA4"/>
<path d="M190.039 151.108C206.459 151.108 219.77 137.79 219.77 121.363C219.77 104.935 206.459 91.6174 190.039 91.6174C173.619 91.6174 160.308 104.935 160.308 121.363C160.308 137.79 173.619 151.108 190.039 151.108Z" stroke="#694633" stroke-width="5" stroke-miterlimit="10" stroke-linecap="round" stroke-linejoin="round"/>
<path d="M204.942 118.451L182.852 107.624C181.92 107.171 180.849 107.889 180.918 108.923L182.594 133.475C182.663 134.508 183.828 135.076 184.685 134.502L205.1 120.776C205.963 120.197 205.875 118.905 204.942 118.451Z" fill="#694633"/>
<path d="M272.889 55.5326L279.446 30.4257C279.912 28.636 278.842 26.8084 277.059 26.3421C275.27 25.8757 273.443 26.947 272.977 28.7305L266.42 53.8374L241.325 47.2771C239.536 46.8107 237.709 47.882 237.243 49.6655C236.777 51.4552 237.848 53.2828 239.631 53.7491L264.726 60.3094L258.168 85.4163C257.702 87.2061 258.773 89.0336 260.562 89.5C262.351 89.9663 264.178 88.895 264.644 87.1115L271.201 62.0047L296.296 68.565C298.085 69.0313 299.912 67.96 300.378 66.1765C300.844 64.3868 299.773 62.5592 297.984 62.0929L272.889 55.5326Z" fill="url(#paint0_linear)"/>
<path opacity="0.7" d="M272.511 59.3579L287.534 50.5541C288.605 49.9239 288.964 48.55 288.334 47.4787C287.71 46.4074 286.331 46.0482 285.26 46.6784L270.237 55.4822L261.438 40.4521C260.814 39.3807 259.434 39.0215 258.364 39.6517C257.293 40.2756 256.934 41.6557 257.564 42.7271L266.363 57.7572L251.34 66.561C250.27 67.1912 249.91 68.565 250.54 69.6363C251.17 70.7076 252.543 71.0668 253.614 70.4366L268.637 61.6329L277.437 76.663C278.06 77.7343 279.44 78.0935 280.511 77.4633C281.582 76.8331 281.941 75.4593 281.311 74.388L272.511 59.3579Z" fill="url(#paint1_linear)"/>
<defs>
<linearGradient id="paint0_linear" x1="236.795" y1="56.0156" x2="300.81" y2="59.8487" gradientUnits="userSpaceOnUse">
<stop stop-color="#0A62F9"/>
<stop offset="1" stop-color="#45B4D3"/>
</linearGradient>
<linearGradient id="paint1_linear" x1="255.16" y1="42.4462" x2="283.742" y2="74.6525" gradientUnits="userSpaceOnUse">
<stop stop-color="#0A62F9"/>
<stop offset="1" stop-color="#45B4D3"/>
</linearGradient>
</defs>
</svg>
