<svg width="996" height="816" viewBox="0 0 996 816" fill="none" xmlns="http://www.w3.org/2000/svg">
<path d="M562.68 815.04C613.866 815.04 655.36 802.952 655.36 788.04C655.36 773.128 613.866 761.04 562.68 761.04C511.494 761.04 470 773.128 470 788.04C470 802.952 511.494 815.04 562.68 815.04Z" fill="#EDDDA4"/>
<path d="M592.68 795.04C679.764 795.04 750.36 782.952 750.36 768.04C750.36 753.128 679.764 741.04 592.68 741.04C505.596 741.04 435 753.128 435 768.04C435 782.952 505.596 795.04 592.68 795.04Z" fill="#EDDDA4"/>
<path d="M315.68 800.04C402.764 800.04 473.36 787.952 473.36 773.04C473.36 758.128 402.764 746.04 315.68 746.04C228.596 746.04 158 758.128 158 773.04C158 787.952 228.596 800.04 315.68 800.04Z" fill="#EDDDA4"/>
<path d="M103.19 458.07L89.37 346.9L0 414.44L103.19 458.07Z" fill="#A4E5FF"/>
<path d="M906.37 536.35C883.23 587.05 823.37 609.4 772.67 586.26C721.97 563.12 699.62 503.26 722.76 452.56L906.37 536.35Z" fill="#A4E5FF"/>
<path d="M781.2 185.91C794.27 185.91 801.14 179.84 806.66 174.96C811.46 170.71 814.93 167.65 822.52 167.65C830.1 167.65 833.57 170.72 838.37 174.96C843.89 179.84 850.75 185.91 863.83 185.91C876.9 185.91 883.77 179.84 889.29 174.96C894.09 170.71 897.56 167.65 905.14 167.65C912.72 167.65 916.19 170.72 920.99 174.96C926.51 179.84 933.37 185.91 946.45 185.91C959.52 185.91 966.39 179.84 971.91 174.96C976.71 170.71 980.18 167.65 987.76 167.65C991.76 167.65 995.01 164.4 995.01 160.4C995.01 156.4 991.76 153.15 987.76 153.15C974.69 153.15 967.82 159.22 962.3 164.1C957.5 168.34 954.03 171.41 946.45 171.41C938.87 171.41 935.4 168.34 930.6 164.1C925.08 159.22 918.22 153.15 905.14 153.15C892.07 153.15 885.2 159.22 879.68 164.1C874.88 168.35 871.41 171.41 863.83 171.41C856.25 171.41 852.78 168.34 847.98 164.1C842.46 159.22 835.6 153.15 822.52 153.15C809.45 153.15 802.58 159.22 797.06 164.1C792.26 168.35 788.79 171.41 781.2 171.41C773.62 171.41 770.15 168.34 765.35 164.1C759.83 159.22 752.96 153.15 739.89 153.15C735.89 153.15 732.64 156.4 732.64 160.4C732.64 164.4 735.89 167.65 739.89 167.65C747.47 167.65 750.94 170.72 755.75 174.96C761.26 179.84 768.13 185.91 781.2 185.91Z" fill="#A4E5FF"/>
<path d="M781.53 364.86C781.53 385.75 798.46 402.68 819.35 402.68C840.24 402.68 857.17 385.75 857.17 364.86C857.17 343.97 840.24 327.04 819.35 327.04C798.47 327.04 781.53 343.97 781.53 364.86ZM791.32 364.86C791.32 349.38 803.87 336.82 819.36 336.82C834.84 336.82 847.39 349.37 847.39 364.86C847.39 380.34 834.84 392.9 819.36 392.9C803.87 392.89 791.32 380.34 791.32 364.86Z" fill="#A4E5FF"/>
<path d="M250.53 81.86C250.53 102.75 267.46 119.68 288.35 119.68C309.24 119.68 326.17 102.75 326.17 81.86C326.17 60.97 309.24 44.04 288.35 44.04C267.47 44.04 250.53 60.97 250.53 81.86ZM260.32 81.86C260.32 66.38 272.87 53.82 288.36 53.82C303.84 53.82 316.39 66.37 316.39 81.86C316.39 97.34 303.84 109.9 288.36 109.9C272.87 109.89 260.32 97.34 260.32 81.86Z" fill="#A4E5FF"/>
<path d="M136.3 281.27L122.4 267.37C121.41 266.38 121.41 264.77 122.4 263.78C123.39 262.79 125 262.79 125.99 263.78L139.89 277.68L153.79 263.78C154.78 262.79 156.39 262.79 157.38 263.78C158.37 264.77 158.37 266.38 157.38 267.37L143.48 281.27L157.38 295.17C158.37 296.16 158.37 297.77 157.38 298.76C156.39 299.75 154.78 299.75 153.79 298.76L139.89 284.86L125.99 298.76C125 299.75 123.39 299.75 122.4 298.76C121.41 297.77 121.41 296.16 122.4 295.17L136.3 281.27Z" fill="#A4E5FF"/>
<path d="M325.87 558.65C437.95 532.84 566.36 599.28 645.23 600.03C728.92 600.83 784.77 553.48 771.41 515.15C727.79 389.95 786.99 411.17 846.19 302.95C923.98 160.73 561.42 -4.47999 277.57 79.08C-6.28008 162.64 271.34 252.02 159.17 346.45C105.79 391.4 -1.28007 443 51.6899 523.64C67.6299 547.91 109.33 608.51 325.87 558.65Z" fill="#EDDDA4"/>
<path d="M378.05 539.02C487.83 508.97 592.83 590.79 671.7 591.54C755.39 592.34 811.24 544.99 797.88 506.66C754.26 381.46 813.46 402.68 872.66 294.46C950.46 152.24 587.9 -12.97 304.06 70.6C20.22 154.17 297.83 243.54 185.66 337.97C132.27 382.92 16.64 417.01 61.81 511.44C84.56 558.98 211.36 584.64 378.05 539.02Z" stroke="#694633" stroke-width="4.7445" stroke-miterlimit="10" stroke-linecap="round" stroke-linejoin="round"/>
<path d="M500.91 734.04C500.91 734.04 482.91 754.04 494.91 761.04C497.82 762.74 507.91 766.04 507.91 766.04C507.91 766.04 558.32 793.64 563.91 795.04C571.91 797.04 578.91 792.04 563.91 778.04C557.37 771.94 543.56 750.28 540.91 746.04C535.91 738.04 515.91 718.04 500.91 734.04Z" fill="#694633"/>
<path d="M680.91 313.04C681.91 305.04 717.91 290.04 695.91 254.04C680.88 229.45 643.92 205.64 638.43 199.41C629.15 188.88 621.2 183.33 616.09 174.23C610.98 165.13 613.43 160.56 612.55 150.7C611.66 140.85 612.19 125.66 599.72 125.13C579.98 124.3 576.98 111.12 569.05 120.37C569.05 120.37 560.05 106.84 551.39 116.55C537.79 131.82 526.08 124.76 519.93 141.53C515.42 153.81 513.32 167.95 520.23 183.48C524.86 193.9 530.68 201.46 524.33 216.27C520.79 224.52 468.89 265.04 445.89 259.04C422.89 253.04 407.89 291.04 423.89 315.04C439.89 339.04 472.05 326.12 483.89 348.04C488.81 357.15 469.12 379.42 470.89 391.04C474.03 411.64 501.5 428.24 512.89 432.04C561.73 448.35 616.41 385.98 632.89 389.04C651.62 392.52 682.11 387.47 694.89 363.04C708.54 336.97 679.91 321.04 680.91 313.04Z" fill="url(#paint0_linear)"/>
<path d="M630.18 395.85L624.92 443.04C624.92 443.04 675.48 496.37 687.92 525.04C710.92 578.04 584.92 672.04 584.92 672.04C584.92 672.04 610.92 540.04 609.92 539.04C608.92 538.04 592.92 458.04 588.92 457.04C584.92 456.04 588.92 393.04 588.92 393.04L630.18 395.85Z" fill="#939290"/>
<path d="M543.91 383.04C543.91 383.04 514.91 413.94 519.91 440.04C528.91 487.04 576.91 546.04 576.91 546.04C576.91 546.04 546.86 580.85 536.91 607.04C517.91 657.04 522.91 667.04 512.91 685.04C506.05 697.39 473.58 725.28 463.32 734.24C461.32 735.99 461.91 739.23 464.4 740.16C476.69 744.75 478.91 748.05 524.91 749.05C546.61 749.52 573.09 763.66 583.92 770.01C585.39 770.87 587.08 769.33 586.37 767.79C581.56 757.41 575.74 738.31 574.91 722.05C572.91 683.05 643.56 571.31 646.91 564.05C652.91 551.05 652.62 536.35 618.91 479.05C608.91 462.05 590.91 444.05 590.91 444.05L603.91 396.44L543.91 383.04Z" fill="#C4C2BF"/>
<path d="M460.91 60.04C488.1 44.76 466.96 273.93 601.08 239.38C678.99 199.23 605.09 6.36001 655.94 56.09C656.66 145.04 663.79 224.53 618.31 273.51C615.28 273.62 637.29 284.54 637.91 297.32C638.91 318.04 624.16 330.86 629.24 344.29C631.93 363.3 632.15 405.48 626.91 404.2C619.51 405.26 573.5 410.56 543.91 383.05C568.51 358.19 564.57 352.22 552.26 325.47C529.44 269.11 506.77 259.75 478.87 200.52C462.36 150.75 458.45 65.61 460.91 60.04Z" fill="#694633"/>
<path d="M556.24 196.87C556.24 196.87 563.7 223.4 558.16 234.4C555.27 240.15 579.07 258.36 590.91 256.44C601.72 254.69 597.31 238.68 596.12 237.21C590.88 230.74 586.67 216.69 587.17 211.82C587.66 206.93 556.24 196.87 556.24 196.87Z" fill="#E0DDD7"/>
<path d="M595.11 221.28C601.5 220.14 608.2 206.79 610.09 194.83C610.87 189.89 610 184.85 607.77 180.37C606.75 178.31 605.64 175.37 604.93 171.41C603.32 162.36 606.27 161.84 604.61 152.55C602.95 143.27 590.03 131.21 577.27 133.48L558.29 136.87C545.53 139.15 536.95 151.45 539.22 164.21L543.66 189.1C548.21 214.62 586.67 222.78 595.11 221.28Z" fill="#F6F3E9"/>
<path d="M597.063 168.014C598.101 167.749 598.554 166.012 598.075 164.133C597.596 162.255 596.366 160.947 595.328 161.211C594.29 161.476 593.837 163.214 594.316 165.092C594.795 166.97 596.025 168.279 597.063 168.014Z" fill="#694633"/>
<path d="M578.216 171.22C579.545 170.706 579.965 168.59 579.153 166.493C578.342 164.397 576.607 163.115 575.278 163.629C573.949 164.143 573.53 166.26 574.341 168.356C575.153 170.452 576.888 171.735 578.216 171.22Z" fill="#694633"/>
<path d="M590.12 165.15L600.91 177.04L595.91 182.04" stroke="#694633" stroke-width="2.1427" stroke-miterlimit="10" stroke-linecap="round" stroke-linejoin="round"/>
<path d="M598.8 157.41C598.8 157.41 593.85 152.2 588.52 158.37" stroke="#694633" stroke-width="2.1427" stroke-miterlimit="10" stroke-linecap="round" stroke-linejoin="round"/>
<path d="M580.44 158.7C580.44 158.7 574.03 153.75 566.37 160.34" stroke="#694633" stroke-width="2.1427" stroke-miterlimit="10" stroke-linecap="round" stroke-linejoin="round"/>
<path d="M604.76 165.58C604.76 165.58 601.79 158.71 584.35 148.76C566.91 138.81 554.2 143.25 554.2 143.25C554.2 143.25 557.59 150.05 554.9 161.84C552.21 173.63 544.53 179.36 544.53 179.36L537.68 177.54C537.68 177.54 539.72 199.03 548.28 205.25C560.78 214.34 558.26 224.52 555.32 230.11C551.68 237.05 536.98 234.69 531.88 225.58C526.77 216.48 552.06 212.47 534.47 200.74C520.57 191.47 532.69 178.86 527.73 170.6C519.7 157.22 532.6 143.88 537.23 138.44C543.22 131.39 551.93 129.56 558.29 124.63C564.78 119.6 566.55 127.12 566.55 127.12C566.55 127.12 568.8 122.56 573.47 121.97C578.68 121.31 582.6 131.66 591.83 132.19C599.9 132.65 605.18 141.13 606.64 151.75C608.1 162.37 604.76 165.58 604.76 165.58Z" fill="url(#paint1_linear)"/>
<path d="M544.42 179.37C542.86 178.31 540.9 177.83 538.89 178.19C534.81 178.92 532.1 182.81 532.82 186.89C533.55 190.97 537.44 193.68 541.52 192.96C543.53 192.6 545.21 191.47 546.31 189.93" fill="#F6F3E9"/>
<path d="M544.42 179.37C542.86 178.31 540.9 177.83 538.89 178.19C534.81 178.92 532.1 182.81 532.82 186.89C533.55 190.97 537.44 193.68 541.52 192.96C543.53 192.6 545.21 191.47 546.31 189.93" stroke="#694633" stroke-width="1.7141" stroke-miterlimit="10" stroke-linecap="round" stroke-linejoin="round"/>
<path d="M603.91 190.04L574.91 189.04C574.91 189.04 587.91 201.04 595.91 200.04C603.91 199.04 603.91 190.04 603.91 190.04Z" stroke="#694633" stroke-width="1.912" stroke-miterlimit="10" stroke-linecap="round" stroke-linejoin="round"/>
<path d="M471.94 67.3C471.94 67.3 475.19 44.85 471.4 43.57C457.91 39.04 459.21 8.83999 453.91 10.04C448.61 11.24 444.74 28.93 443.42 37.12C442.1 45.31 450 65.86 453.64 67.56C457.28 69.26 466.12 78.52 471.94 67.3Z" fill="#F6F3E9" stroke="#694633" stroke-width="4" stroke-miterlimit="10"/>
<path d="M635.43 57.45C635.43 57.45 632.23 35.66 635.73 33.73C647.91 27.03 647.62 1.9 652.91 3.03C658.2 4.16 662.16 18.76 663.55 26.93C664.94 35.1 657.28 55.74 653.67 57.48C650.06 59.23 641.34 68.59 635.43 57.45Z" fill="#F6F3E9" stroke="#694633" stroke-width="4" stroke-miterlimit="10"/>
<path d="M410 720.04C410 720.04 428 750.04 424 755.04C420 760.04 341 775.04 339 773.04C337 771.04 333 758.04 346 752.04C359 746.04 380 742.04 381 739.04C382 736.04 381 726.04 381 726.04L410 720.04Z" fill="#694633"/>
<path d="M309 451.04C309 451.04 227 511.04 227 560.04C227 609.04 294 663.04 322 674.04C350 685.04 315 591.04 315 591.04C315 591.04 284 591.04 280 565.04C277.55 549.1 317 514.04 317 514.04L349 457.04L315 437.04L309 451.04Z" fill="#939290"/>
<path d="M389 490.04C389 490.04 350 579.04 352 588.04C354 597.04 421 719.04 421 721.04C421 723.04 355 742.04 355 742.04C355 742.04 281 623.04 287 585.04C293 547.04 316 511.04 316 511.04L339 457.04L389 490.04Z" fill="#C4C2BF"/>
<path d="M348.79 373.62C342.5 371.55 335.18 369.05 328.05 366.38C330.39 344.98 313.1 299.33 318.5 288.53C323.27 278.98 350.83 277.03 361.9 276.63L360.5 274.53L361 274.03C361 274.03 396.79 257.23 431 293.03C444.87 307.54 453.54 318.52 461.02 330.26C452.07 335.17 439.03 342.93 430.33 350.72C415.19 334.61 403.04 332.03 399.53 331.61C411.19 378.82 427.77 460.77 414 500.03C394 557.03 341 448.03 290 453.03C244.12 457.54 345.85 416.66 348.79 373.62Z" fill="#694633"/>
<path d="M203.5 341.54C204.5 347.54 205.5 358.54 214.5 368.54C223.5 378.54 298.5 438.54 328.5 409.54C337.79 400.56 344.96 387.76 350.45 374.17C362.69 343.86 366.5 309.68 366.5 305.54C366.5 299.54 381.5 283.54 366.5 276.54C366.5 276.54 324.5 276.54 318.5 288.54C313.1 299.34 330.39 344.99 328.05 366.39C327.8 368.77 327.3 370.85 326.5 372.54C318.5 389.54 283.5 385.54 265.5 372.54C247.5 359.54 236.5 349.54 239.5 341.54C242.5 333.54 248.5 313.54 226.5 311.54C204.5 309.54 202.5 335.54 203.5 341.54Z" fill="#F6F3E9"/>
<path d="M357.5 456.54C362.5 485.54 393.5 472.54 393.5 472.54C393.5 472.54 536.81 470.33 473 351.04C468.92 343.41 465.15 336.72 461.02 330.27C453.54 318.53 444.87 307.55 431 293.04C396.79 257.24 361 274.04 361 274.04L360.5 274.54L398.5 331.54C398.5 331.54 412.3 331.54 430.33 350.73C434.52 355.21 438.96 360.73 443.5 367.54C490.7 438.34 400.5 442.54 393.5 443.54C386.5 444.54 386.5 422.54 372.5 428.54C364.03 432.17 352.5 427.54 357.5 456.54Z" fill="#F6F3E9"/>
<path d="M240.04 333.57L232 336.04" stroke="#694633" stroke-width="1.8123" stroke-miterlimit="10" stroke-linecap="round" stroke-linejoin="round"/>
<path d="M352 375.04C345.71 372.97 335.18 369.05 328.05 366.39C330.39 344.99 313.1 299.34 318.5 288.54C323.27 278.99 350.83 277.04 361.9 276.64L360.5 274.54L361 274.04C361 274.04 396.79 257.24 431 293.04C444.87 307.55 453.54 318.53 461.02 330.27C452.07 335.18 439.03 342.94 430.33 350.73C415.19 334.62 403.04 332.04 399.53 331.62" fill="#694633"/>
<path d="M335.51 243.61C335.51 243.61 346.07 271.94 360 275.04C367.28 276.66 370 287.04 358 302.04C348.85 313.47 348.94 329.16 349 327.04C349.24 317.71 320.49 284.9 316.26 281.8C312.03 278.7 335.51 243.61 335.51 243.61Z" fill="#E0DDD7"/>
<path d="M326.86 296.28L320.31 300.65C310.23 307.38 296.48 304.64 289.75 294.56L258.46 247.68C251.73 237.6 254.47 223.85 264.55 217.12L289.43 200.51C299.51 193.78 313.26 196.52 319.99 206.6L339.05 235.15C352.5 255.33 347.01 282.83 326.86 296.28Z" fill="#F6F3E9"/>
<path d="M283.97 247.29L289.62 268.67L295.59 264.69" stroke="#694633" stroke-width="2.2416" stroke-miterlimit="10" stroke-linecap="round" stroke-linejoin="round"/>
<path d="M253.05 198.39C253.05 198.39 237.76 203.75 231.42 214.44C228.95 218.61 236.9 227.49 239.51 225.75C242.12 224.01 226.09 242.79 226.09 242.79C226.09 242.79 234.05 254.72 249.72 258.82C256.47 260.58 269.46 260.1 277.43 231.7C285.25 203.84 302.53 207.94 305.39 208.18C308.25 208.43 311.93 228.55 323.34 225.01C334.74 221.47 332.03 215.75 332.03 215.75C332.03 215.75 319.05 175.35 306 185.68C306 185.68 304.91 175.26 293.81 170.64C283.36 166.29 268.59 171.42 260.61 178.24C252.05 185.59 253.05 198.39 253.05 198.39Z" fill="url(#paint2_linear)"/>
<path d="M281 234.04C281 234.04 282 223.04 293 226.04" stroke="#694633" stroke-width="1.7933" stroke-miterlimit="10" stroke-linecap="round" stroke-linejoin="round"/>
<path d="M269.43 241.15C269.43 241.15 265.2 238.04 264.33 244.01" stroke="#694633" stroke-width="1.7933" stroke-miterlimit="10" stroke-linecap="round" stroke-linejoin="round"/>
<path d="M297.75 288.54C301.754 288.54 305 285.294 305 281.29C305 277.286 301.754 274.04 297.75 274.04C293.746 274.04 290.5 277.286 290.5 281.29C290.5 285.294 293.746 288.54 297.75 288.54Z" stroke="#694633" stroke-width="1.912" stroke-miterlimit="10" stroke-linecap="round" stroke-linejoin="round"/>
<path d="M334.21 235.2C336.62 235.51 339.15 234.92 341.25 233.35C345.52 230.15 346.38 224.1 343.18 219.84C339.98 215.57 333.93 214.71 329.67 217.91C327.57 219.49 326.29 221.75 325.92 224.16" fill="#F6F3E9"/>
<path d="M334.21 235.2C336.62 235.51 339.15 234.92 341.25 233.35C345.52 230.15 346.38 224.1 343.18 219.84C339.98 215.57 333.93 214.71 329.67 217.91C327.57 219.49 326.29 221.75 325.92 224.16" stroke="#694633" stroke-width="4" stroke-miterlimit="10" stroke-linecap="round" stroke-linejoin="round"/>
<path d="M278 251.04C278 251.04 270.89 251.04 270 257.04" stroke="#694633" stroke-width="1.6907" stroke-miterlimit="10" stroke-linecap="round" stroke-linejoin="round"/>
<path d="M297 236.04C297 236.04 289 236.04 288 242.04" stroke="#694633" stroke-width="1.7933" stroke-miterlimit="10" stroke-linecap="round" stroke-linejoin="round"/>
<defs>
<linearGradient id="paint0_linear" x1="656.021" y1="404.08" x2="480.971" y2="193.32" gradientUnits="userSpaceOnUse">
<stop stop-color="#0A62F9"/>
<stop offset="1" stop-color="#45B4D3"/>
</linearGradient>
<linearGradient id="paint1_linear" x1="635.689" y1="168.82" x2="518.103" y2="182.853" gradientUnits="userSpaceOnUse">
<stop stop-color="#0A62F9"/>
<stop offset="1" stop-color="#45B4D3"/>
</linearGradient>
<linearGradient id="paint2_linear" x1="227.615" y1="245.063" x2="316.692" y2="185.6" gradientUnits="userSpaceOnUse">
<stop stop-color="#0A62F9"/>
<stop offset="1" stop-color="#45B4D3"/>
</linearGradient>
</defs>
</svg>
