<svg width="397" height="259" viewBox="0 0 397 259" fill="none" xmlns="http://www.w3.org/2000/svg">
<g clip-path="url(#clip0)">
<path d="M92.0412 229.53L0 217.275L56.6469 143.773L92.0412 229.53Z" fill="#A4E5FF"/>
<path d="M127.739 39.6426C109.602 39.6426 94.8955 54.3342 94.8955 72.4538C94.8955 90.5735 109.602 105.265 127.739 105.265C145.877 105.265 160.583 90.5735 160.583 72.4538C160.583 54.3342 145.883 39.6426 127.739 39.6426ZM127.739 96.7725C114.293 96.7725 103.397 85.8808 103.397 72.4538C103.397 59.0206 114.293 48.1352 127.739 48.1352C141.186 48.1352 152.082 59.0206 152.082 72.4538C152.088 85.887 141.186 96.7725 127.739 96.7725Z" fill="#A4E5FF"/>
<path d="M363.989 214.404C355.103 214.404 350.436 210.282 346.682 206.966C343.418 204.083 341.06 202 335.904 202C330.754 202 328.39 204.083 325.126 206.966C321.378 210.282 316.705 214.404 307.819 214.404C298.934 214.404 294.267 210.282 290.513 206.966C287.249 204.083 284.891 202 279.735 202C274.585 202 272.22 204.083 268.956 206.966C265.209 210.276 260.536 214.404 251.656 214.404C242.771 214.404 238.104 210.282 234.35 206.966C231.086 204.083 228.728 202 223.572 202C220.854 202 218.645 199.793 218.645 197.078C218.645 194.357 220.854 192.156 223.572 192.156C232.458 192.156 237.124 196.279 240.878 199.595C244.142 202.478 246.5 204.56 251.65 204.56C256.801 204.56 259.159 202.478 262.422 199.595C266.17 196.279 270.843 192.156 279.729 192.156C288.614 192.156 293.281 196.279 297.035 199.595C300.299 202.478 302.657 204.56 307.813 204.56C312.963 204.56 315.328 202.478 318.585 199.595C322.333 196.279 327.006 192.156 335.892 192.156C344.777 192.156 349.444 196.279 353.198 199.595C356.462 202.478 358.82 204.56 363.976 204.56C369.133 204.56 371.491 202.478 374.754 199.595C378.502 196.285 383.175 192.156 392.061 192.156C394.779 192.156 396.988 194.363 396.988 197.078C396.988 199.793 394.779 202 392.061 202C386.904 202 384.546 204.083 381.282 206.966C377.547 210.282 372.874 214.404 363.989 214.404Z" fill="#A4E5FF"/>
<path d="M137.984 247.197C164.939 240.211 196.952 251.617 225.849 257.816C257.843 264.678 288.149 240.924 289.179 208.249C290.054 180.601 310.575 185.988 322.805 148.36C329.134 108.984 249.429 69.3357 169.215 72.3732C18.1812 89.3398 96.1242 134.276 89.5529 157.523C86.6179 177.149 52.0427 187.619 41.3388 207.009C26.2416 236.516 56.8641 267.883 137.984 247.197Z" fill="#F3EACE"/>
<path d="M240.897 220.325L122.713 229.208C115.906 229.722 109.918 224.577 109.409 217.777L101.963 118.872C101.448 112.072 106.598 106.09 113.406 105.581L231.589 96.6981C238.396 96.1835 244.384 101.329 244.893 108.129L252.339 207.034C252.848 213.828 247.698 219.81 240.897 220.325Z" fill="#F6F3E9"/>
<path d="M247.499 225.42L129.316 234.303C122.509 234.818 116.521 229.673 116.012 222.872L108.566 123.967C108.051 117.167 113.201 111.185 120.008 110.677L238.191 101.794C244.998 101.279 250.986 106.424 251.495 113.225L258.941 212.129C259.456 218.93 254.306 224.912 247.499 225.42Z" fill="#E0DDD7"/>
<path d="M196.896 173.559L138.257 178.519L133.914 128.927L192.863 123.967L196.896 173.559Z" fill="#F6F3E9"/>
<path d="M240.897 220.325L122.713 229.208C115.906 229.722 109.918 224.577 109.409 217.777L101.963 118.872C101.448 112.072 106.598 106.09 113.406 105.581L231.589 96.6981C238.396 96.1835 244.384 101.329 244.893 108.129L252.339 207.034C252.848 213.828 247.698 219.81 240.897 220.325Z" stroke="#694633" stroke-width="5" stroke-miterlimit="10" stroke-linecap="round" stroke-linejoin="round"/>
<path d="M273.145 25.0936L272.946 25.013L278.221 11.9951C279.443 8.97621 277.985 5.52957 274.963 4.30837L269.602 2.13872C266.574 0.917524 263.13 2.37429 261.908 5.39319L256.633 18.4111L256.435 18.3305L209.375 134.419L223.206 135.157L226.091 141.182L273.145 25.0936Z" fill="#E0DDD7"/>
<path d="M226.203 141.467L223.2 135.163L209.492 134.704L206.619 155.527L206.57 155.502L204.392 171.284L213.817 158.44L213.768 158.415L226.203 141.467Z" fill="#E0DDD7"/>
<path d="M228.474 142.155L225.589 136.13L211.757 135.392L258.817 19.3037L275.534 26.0606L228.474 142.155Z" fill="#D3B966"/>
<path d="M211.881 135.671L206.861 172.053L228.592 142.434L225.589 136.13L211.881 135.671Z" fill="#EDDDA4"/>
<path d="M207.761 155.985L205.583 171.768L215.015 158.917L207.761 155.985Z" fill="#694633"/>
<path d="M275.255 26.1784L258.935 19.5765L264.29 6.36021C265.513 3.33511 268.963 1.87834 271.985 3.10574L277.346 5.27539C280.374 6.49659 281.832 9.94323 280.604 12.9621L275.255 26.1784Z" fill="#E0DDD7"/>
<path d="M225.688 141.027L222.803 135.002L208.977 134.264L256.031 18.1754L272.748 24.9385L225.688 141.027Z" stroke="#694633" stroke-width="5" stroke-miterlimit="10" stroke-linecap="round" stroke-linejoin="round"/>
<path d="M209.095 134.543L204.075 170.925L225.806 141.306" stroke="#694633" stroke-width="5" stroke-miterlimit="10" stroke-linecap="round" stroke-linejoin="round"/>
<path d="M222.802 135.002L268.088 23.2834" stroke="#694633" stroke-width="5" stroke-miterlimit="10" stroke-linecap="round" stroke-linejoin="round"/>
<path d="M272.469 25.0563L256.149 18.4544L261.504 5.23814C262.727 2.21304 266.177 0.756273 269.199 1.98367L274.56 4.15332C277.588 5.37452 279.046 8.82116 277.817 11.8401L272.469 25.0563Z" stroke="#694633" stroke-width="5" stroke-miterlimit="10" stroke-linecap="round" stroke-linejoin="round"/>
<path d="M190.691 170.46L132.052 175.419L127.708 125.827L186.657 120.868L190.691 170.46Z" stroke="#694633" stroke-width="5" stroke-miterlimit="10" stroke-linecap="round" stroke-linejoin="round"/>
<path d="M133.914 192.156L231.335 183.478" stroke="#694633" stroke-width="5" stroke-miterlimit="10" stroke-linecap="round" stroke-linejoin="round"/>
<path d="M159.045 151.243C164.356 151.243 168.663 146.941 168.663 141.635C168.663 136.328 164.356 132.026 159.045 132.026C153.733 132.026 149.427 136.328 149.427 141.635C149.427 146.941 153.733 151.243 159.045 151.243Z" fill="#EDDDA4"/>
<path d="M162.109 168.584C170.14 167.98 176.39 164.032 176.068 159.764C175.747 155.497 168.976 152.526 160.945 153.13C152.914 153.733 146.665 157.682 146.986 161.949C147.307 166.217 154.078 169.187 162.109 168.584Z" fill="#EDDDA4"/>
</g>
<defs>
<clipPath id="clip0">
<rect width="397" height="259" fill="white"/>
</clipPath>
</defs>
</svg>
