<svg width="276" height="165" viewBox="0 0 276 165" fill="none" xmlns="http://www.w3.org/2000/svg">
<g clip-path="url(#clip0)">
<path d="M63.9892 131.443L0 122.961L39.3799 72.0765L63.9892 131.443Z" fill="#A4E5FF"/>
<path d="M88.8066 0C76.1992 0 65.9758 10.1694 65.9758 22.7102C65.9758 35.2509 76.1992 45.4203 88.8066 45.4203C101.414 45.4203 111.637 35.2509 111.637 22.7102C111.637 10.1694 101.42 0 88.8066 0ZM88.8066 39.5483C79.4599 39.5483 71.8853 32.0138 71.8853 22.7164C71.8853 13.4191 79.4599 5.88457 88.8066 5.88457C98.1533 5.88457 105.728 13.4191 105.728 22.7164C105.734 32.0075 98.1533 39.5483 88.8066 39.5483Z" fill="#A4E5FF"/>
<path d="M253.049 146.719C246.869 146.719 243.627 143.864 241.016 141.568C238.745 139.573 237.106 138.13 233.523 138.13C229.941 138.13 228.301 139.573 226.031 141.568C223.426 143.864 220.178 146.719 214.004 146.719C207.829 146.719 204.581 143.864 201.977 141.568C199.706 139.573 198.066 138.13 194.484 138.13C190.902 138.13 189.262 139.573 186.991 141.568C184.387 143.864 181.139 146.719 174.964 146.719C168.784 146.719 165.542 143.864 162.937 141.568C160.667 139.573 159.027 138.13 155.445 138.13C153.553 138.13 152.02 136.606 152.02 134.724C152.02 132.842 153.553 131.317 155.445 131.317C161.625 131.317 164.867 134.172 167.472 136.468C169.742 138.463 171.382 139.906 174.964 139.906C178.547 139.906 180.186 138.463 182.457 136.468C185.062 134.172 188.31 131.317 194.484 131.317C200.665 131.317 203.906 134.172 206.517 136.468C208.788 138.463 210.428 139.906 214.01 139.906C217.592 139.906 219.232 138.463 221.502 136.468C224.107 134.172 227.355 131.317 233.53 131.317C239.71 131.317 242.952 134.172 245.563 136.468C247.834 138.463 249.473 139.906 253.056 139.906C256.638 139.906 258.278 138.463 260.548 136.468C263.153 134.172 266.401 131.317 272.582 131.317C274.474 131.317 276.006 132.842 276.006 134.724C276.006 136.606 274.474 138.13 272.582 138.13C268.999 138.13 267.36 139.573 265.089 141.568C262.472 143.864 259.23 146.719 253.049 146.719Z" fill="#A4E5FF"/>
<path d="M209.589 30.8595L224.801 15.7277C225.886 14.6487 225.886 12.9046 224.801 11.8256C223.716 10.7465 221.963 10.7465 220.878 11.8256L205.666 26.9573L190.454 11.8256C189.369 10.7465 187.616 10.7465 186.531 11.8256C185.446 12.9046 185.446 14.6487 186.531 15.7277L201.743 30.8595L186.531 45.9912C185.446 47.0702 185.446 48.8143 186.531 49.8933C187.616 50.9724 189.369 50.9724 190.454 49.8933L205.666 34.7616L220.878 49.8933C221.963 50.9724 223.716 50.9724 224.801 49.8933C225.886 48.8143 225.886 47.0702 224.801 45.9912L209.589 30.8595Z" fill="#A4E5FF"/>
<path d="M95.9272 143.67C114.671 138.833 136.922 146.731 157.009 151.023C179.247 155.772 200.318 139.329 201.037 116.713C201.642 97.5721 215.909 101.305 224.416 75.2572C228.819 47.9987 173.407 20.5521 117.642 22.6537C12.6453 34.404 66.8274 65.5082 62.2612 81.5998C60.2241 95.1882 36.1825 102.434 28.7404 115.853C18.2458 136.28 39.5314 157.992 95.9272 143.67Z" fill="#F3EACE"/>
<path d="M161.689 78.1305V40.3199C161.689 24.2848 148.501 11.1606 132.374 11.1606H118.096C101.975 11.1606 88.7815 24.2785 88.7815 40.3199V78.1242H100.537V40.6211C100.537 30.6273 108.755 22.4529 118.802 22.4529H132.103C142.15 22.4529 150.368 30.6273 150.368 40.6211V78.1242H161.689V78.1305Z" fill="#D3B966"/>
<path d="M160.074 161.142H85.6532C78.7157 161.142 73.0396 155.496 73.0396 148.595V87.867C73.0396 80.9661 78.7157 75.3199 85.6532 75.3199H160.074C167.011 75.3199 172.688 80.9661 172.688 87.867V148.595C172.688 155.496 167.011 161.142 160.074 161.142Z" fill="#F6F3E9"/>
<path d="M164.388 165H89.9672C83.0297 165 77.3535 159.354 77.3535 152.453V91.7252C77.3535 84.8243 83.0297 79.1782 89.9672 79.1782H164.388C171.325 79.1782 177.002 84.8243 177.002 91.7252V152.453C177.002 159.354 171.325 165 164.388 165Z" fill="#EDDDA4"/>
<path d="M160.074 161.142H85.6532C78.7157 161.142 73.0396 155.496 73.0396 148.595V87.867C73.0396 80.9661 78.7157 75.3199 85.6532 75.3199H160.074C167.011 75.3199 172.688 80.9661 172.688 87.867V148.595C172.688 155.496 167.011 161.142 160.074 161.142Z" stroke="#694633" stroke-width="3.42" stroke-miterlimit="10" stroke-linecap="round" stroke-linejoin="round"/>
<path d="M159.097 75.1255V37.3212C159.097 21.2861 145.909 8.16187 129.782 8.16187H115.504C99.3834 8.16187 86.1895 21.2798 86.1895 37.3212V75.1255H97.9454V37.6223C97.9454 27.6286 106.163 19.4542 116.21 19.4542H129.511C139.558 19.4542 147.776 27.6286 147.776 37.6223V75.1255H159.097Z" stroke="#694633" stroke-width="3.42" stroke-miterlimit="10" stroke-linecap="round" stroke-linejoin="round"/>
</g>
<defs>
<clipPath id="clip0">
<rect width="276" height="165" fill="white"/>
</clipPath>
</defs>
</svg>
