<svg  width="18" height="18" viewBox="0 0 24 24" xmlns="http://www.w3.org/2000/svg">
  <path d="M24 12C24 12.9468 23.2325 13.7143 22.2857 13.7143H13.7143V22.2857C13.7143 23.2325 12.9468 24 12 24V24C11.0532 24 10.2857 23.2325 10.2857 22.2857V13.7143H1.71429C0.767514 13.7143 0 12.9468 0 12V12C0 11.0532 0.767512 10.2857 1.71429 10.2857H10.2857V1.71429C10.2857 0.767513 11.0532 0 12 0V0C12.9468 0 13.7143 0.767512 13.7143 1.71429V10.2857H22.2857C23.2325 10.2857 24 11.0532 24 12V12Z" fill="#694633"/>
</svg>                  