<svg width="719" height="424" viewBox="0 0 719 424" fill="none" xmlns="http://www.w3.org/2000/svg">
<g clip-path="url(#clip0)">
<path d="M109.44 0L44.97 75.09L142.24 93.38L109.44 0Z" fill="#A4E5FF"/>
<path d="M718.67 91.34C715.96 130.67 681.87 160.36 642.54 157.65C603.21 154.94 573.52 120.85 576.23 81.52L718.67 91.34Z" fill="#A4E5FF"/>
<path d="M529 396.67C539.28 396.67 544.69 391.89 549.03 388.06C552.81 384.72 555.54 382.31 561.5 382.31C567.46 382.31 570.19 384.72 573.97 388.06C578.31 391.9 583.71 396.67 593.99 396.67C604.27 396.67 609.67 391.89 614.01 388.06C617.79 384.72 620.52 382.31 626.48 382.31C632.44 382.31 635.17 384.72 638.95 388.06C643.29 391.9 648.69 396.67 658.97 396.67C669.25 396.67 674.65 391.89 678.99 388.06C682.77 384.72 685.5 382.31 691.46 382.31C694.61 382.31 697.16 379.76 697.16 376.61C697.16 373.46 694.61 370.91 691.46 370.91C681.18 370.91 675.78 375.69 671.44 379.52C667.66 382.86 664.93 385.27 658.97 385.27C653.01 385.27 650.28 382.86 646.5 379.52C642.16 375.68 636.76 370.91 626.48 370.91C616.2 370.91 610.8 375.69 606.46 379.52C602.68 382.86 599.95 385.27 593.99 385.27C588.03 385.27 585.3 382.86 581.52 379.52C577.18 375.68 571.78 370.91 561.5 370.91C551.22 370.91 545.81 375.69 541.47 379.52C537.69 382.86 534.96 385.27 529 385.27C523.03 385.27 520.31 382.86 516.53 379.52C512.19 375.68 506.79 370.91 496.5 370.91C493.35 370.91 490.8 373.46 490.8 376.61C490.8 379.76 493.35 382.31 496.5 382.31C502.47 382.31 505.19 384.72 508.97 388.06C513.32 391.89 518.72 396.67 529 396.67Z" fill="#A4E5FF"/>
<path d="M12.53 221.01C12.53 243.44 30.71 261.62 53.14 261.62C75.57 261.62 93.75 243.44 93.75 221.01C93.75 198.58 75.57 180.4 53.14 180.4C30.72 180.4 12.53 198.58 12.53 221.01ZM23.04 221.01C23.04 204.38 36.52 190.9 53.15 190.9C69.78 190.9 83.25 204.38 83.25 221.01C83.25 237.64 69.77 251.12 53.15 251.12C36.52 251.12 23.04 237.64 23.04 221.01Z" fill="#A4E5FF"/>
<path d="M664.59 196.96L654.76 187.13C654.06 186.43 654.06 185.29 654.76 184.59C655.46 183.89 656.6 183.89 657.3 184.59L667.13 194.42L676.97 184.59C677.67 183.89 678.81 183.89 679.51 184.59C680.21 185.29 680.21 186.43 679.51 187.13L669.67 196.96L679.51 206.79C680.21 207.49 680.21 208.63 679.51 209.33C678.81 210.03 677.67 210.03 676.97 209.33L667.13 199.49L657.3 209.33C656.6 210.03 655.46 210.03 654.76 209.33C654.06 208.63 654.06 207.49 654.76 206.79L664.59 196.96Z" fill="#A4E5FF"/>
<path d="M219.99 392.41C305.03 372.78 402.46 423.31 462.3 423.88C525.8 424.49 568.17 388.47 558.04 359.32C524.94 264.1 569.86 280.24 614.78 197.93C673.81 89.76 398.72 -35.9 183.35 27.66C-32.02 91.22 168.01 161.32 82.91 233.14C42.4 267.32 -28.22 304.45 11.96 365.78C24.06 384.24 55.7 430.33 219.99 392.41Z" fill="#EDDDA4"/>
<path d="M208.49 276.49C206.63 270.65 177.63 264.42 189.08 234.45C196.91 213.97 221.24 191.04 224.48 185.62C229.96 176.45 235.14 171.2 237.69 163.69C240.24 156.18 237.78 153.1 237.07 145.6C236.37 138.11 233.86 126.82 243.12 124.7C257.76 121.34 258.18 111.07 265.39 116.88C265.39 116.88 270.24 105.51 278.07 111.58C290.36 121.11 298.14 114.21 305.06 125.9C310.13 134.46 313.67 144.75 310.66 157.32C308.64 165.76 305.34 172.22 312.14 182.41C315.93 188.09 360.37 211.19 376.74 203.51C393.11 195.83 409.6 222.17 400.97 242.34C392.34 262.51 366.49 257.31 360.68 275.35C358.26 282.85 376.08 296.77 376.37 305.7C376.88 321.54 358.64 337.77 350.65 342.19C316.39 361.16 266.84 322.11 254.94 326.69C241.42 331.89 217.91 332.35 204.96 315.85C191.15 298.22 210.34 282.33 208.49 276.49Z" fill="url(#paint0_linear)"/>
<path d="M346.3 396.28L320.13 272.49L318.52 253.75L339.23 235L353.38 240.66L363.28 387.09C363.28 387.09 370.35 392.04 373.89 404.07L346.3 396.28Z" fill="#E8E5DD"/>
<path d="M240.19 213.07C240.19 213.07 221.09 213.78 209.06 221.56C197.03 229.34 187.84 258.34 187.84 258.34L216.84 276.73L224.62 267.53L233.82 319.88H305.65L316.59 278.85L325.08 264.7L353.38 240.65C353.38 240.65 344.18 232.87 332.16 225.79C320.14 218.71 309.52 218.72 309.52 218.72L240.19 213.07Z" fill="#D3B966"/>
<path d="M305.98 319.88H233.83V330.49H305.98V319.88Z" fill="#939290"/>
<path d="M330.14 395.93C330.11 395.33 330.07 394.74 330.03 394.16C327.2 353.13 305.98 330.49 305.98 330.49H233.83C233.83 330.49 216.97 357.76 207.05 395.28C211.27 394.38 215.59 393.43 220 392.41C255.76 384.15 293.71 388.31 330.14 395.93Z" fill="#694633"/>
<path d="M222.05 270.59C222.05 270.59 204.12 319.18 180.77 319.89C157.42 320.6 153.89 223.68 153.89 223.68C153.89 223.68 152.48 208.82 159.55 209.53C166.62 210.24 170.87 221.56 170.87 221.56C170.87 221.56 179.57 268.25 184.31 268.25C186.43 268.25 190.7 260.15 190.7 260.15" fill="#F6F3E9"/>
<path d="M157.43 223.68C157.43 223.68 141.68 217.39 143.99 198.92C145.4 187.6 153.89 191.14 153.89 191.14C153.89 191.14 142.57 160.01 146.82 159.31C151.06 158.6 159.55 181.95 160.97 184.07C162.39 186.19 169.46 159.31 173.7 159.31C177.94 159.31 169.46 190.44 171.58 191.14C173.7 191.85 180.07 202.46 177.24 209.53C174.41 216.6 170.16 224.39 157.43 223.68Z" fill="#F6F3E9"/>
<path d="M285.6 172.31C285.6 172.31 289 193.18 289 205.29C289 209.53 309.51 218.73 309.51 218.73C309.51 218.73 305.36 221.72 304.56 222.27C291.12 231.47 253.63 234.3 241.6 218.03C240.12 216.03 240.19 213.08 240.19 213.08C240.19 213.08 259.65 210.49 260 209.54C262.83 201.76 261.75 191.19 260.71 187.61C259.66 184.02 285.6 172.31 285.6 172.31Z" fill="#E0DDD7"/>
<path d="M259.92 195.96C254.99 195.99 248.12 186.94 245.04 178.26C243.77 174.67 243.72 170.78 244.77 167.12C245.25 165.44 245.67 163.08 245.65 160.02C245.6 153.03 243.32 153.05 243.27 145.88C243.22 138.71 251.21 127.9 261.07 127.83L275.74 127.73C285.6 127.66 293.72 135.67 293.79 145.53L293.93 164.76C294.07 184.47 266.44 195.91 259.92 195.96Z" fill="#F6F3E9"/>
<path d="M256.53 155.324C256.628 153.852 256.046 152.616 255.23 152.562C254.415 152.508 253.674 153.657 253.577 155.128C253.479 156.599 254.061 157.836 254.877 157.89C255.692 157.944 256.433 156.795 256.53 155.324Z" fill="#694633"/>
<path d="M275.718 155.777C276.034 154.094 275.428 152.568 274.364 152.368C273.3 152.168 272.181 153.37 271.865 155.053C271.549 156.735 272.155 158.261 273.219 158.461C274.283 158.661 275.401 157.459 275.718 155.777Z" fill="#694633"/>
<path d="M262.71 153.29L259.66 164.74L262.7 165.5" stroke="#694633" stroke-width="2.1427" stroke-miterlimit="10" stroke-linecap="round" stroke-linejoin="round"/>
<path d="M252.1 149.47C252.1 149.47 255.08 144.89 259.92 148.76" stroke="#694633" stroke-width="2.1427" stroke-miterlimit="10" stroke-linecap="round" stroke-linejoin="round"/>
<path d="M267.53 147.89C267.53 147.89 271.63 143.3 278.28 147.16" stroke="#694633" stroke-width="2.1427" stroke-miterlimit="10" stroke-linecap="round" stroke-linejoin="round"/>
<path d="M245.68 155.64C245.68 155.64 246.94 150.09 258.61 140.23C270.28 130.37 280.39 131.93 280.39 131.93C280.39 131.93 278.8 137.48 282.44 145.93C286.09 154.38 292.63 157.59 292.63 157.59L297.5 155.27C297.5 155.27 298.96 171.62 293.42 177.46C285.33 185.99 288.63 193.25 291.6 197.03C295.28 201.72 305.95 197.91 308.5 190.39C311.05 182.87 291.59 183.39 303.11 172.17C312.22 163.3 301.41 155.56 303.97 148.69C308.12 137.57 296.62 129.38 292.4 125.95C286.94 121.51 280.17 121.35 274.73 118.54C269.18 115.68 268.9 121.55 268.9 121.55C268.9 121.55 266.58 118.45 263.01 118.66C259.02 118.89 257.53 127.17 250.7 128.85C244.73 130.32 241.96 137.39 242.34 145.53C242.73 153.71 245.68 155.64 245.68 155.64Z" fill="url(#paint1_linear)"/>
<path d="M292.01 157.58C293.03 156.57 294.43 155.94 295.98 155.93C299.13 155.91 301.7 158.44 301.72 161.59C301.74 164.74 299.21 167.31 296.06 167.33C294.51 167.34 293.1 166.73 292.06 165.73" fill="#F6F3E9"/>
<path d="M292.01 157.58C293.03 156.57 294.43 155.94 295.98 155.93C299.13 155.91 301.7 158.44 301.72 161.59C301.74 164.74 299.21 167.31 296.06 167.33C294.51 167.34 293.1 166.73 292.06 165.73" stroke="#694633" stroke-width="1.7141" stroke-miterlimit="10" stroke-linecap="round" stroke-linejoin="round"/>
<path d="M254.86 173.87L276.93 173.69C276.93 173.69 266.8 182.55 260.74 181.63C254.68 180.71 254.86 173.87 254.86 173.87Z" stroke="#694633" stroke-width="1.912" stroke-miterlimit="10" stroke-linecap="round" stroke-linejoin="round"/>
<path d="M478.59 196.09C478.59 196.09 505.47 202.46 516.08 187.6C526.69 172.74 504.76 132.42 504.76 132.42C504.76 132.42 508.3 111.91 514.66 113.32C521.03 114.73 555.38 174.33 550.03 197.5C545.79 215.89 537.3 235.7 488.49 234.99C439.68 234.29 478.59 196.09 478.59 196.09Z" fill="#F6F3E9"/>
<path d="M496.98 189.02C496.98 189.02 462.91 181.92 453.42 181.93C440.68 179.26 427.53 188.15 418.19 189.56C409.37 193.59 371.78 184.78 353.38 191.85C341.67 196.35 332.4 208.98 325.79 218.02C312.35 236.41 308.11 246.32 308.11 246.32L353.38 278.86V347.48H461.61V251.27L486.86 245.93C493.55 244.52 498.27 238.53 498.09 231.7L496.98 189.02Z" fill="#694633"/>
<path d="M389.35 151.18C389.35 151.18 394.61 176.71 386.48 186.68C382.23 191.89 397.23 203.49 411.65 202.52C424.82 201.64 432.72 193.5 431.5 192.03C426.12 185.56 423.02 172.03 424.29 167.47C425.55 162.91 389.35 151.18 389.35 151.18Z" fill="#E0DDD7"/>
<path d="M429.59 183.27C441.78 182.31 450.96 171.54 449.99 159.36L446.35 113.43C445.39 101.24 434.62 92.06 422.44 93.03L400.28 94.78C388.09 95.74 378.91 106.51 379.88 118.69L381.76 142.46C383.69 166.83 405.22 185.2 429.59 183.27Z" fill="#F6F3E9"/>
<path d="M432.031 131.156C433.243 130.97 433.951 129.032 433.613 126.826C433.274 124.621 432.017 122.984 430.806 123.17C429.594 123.356 428.886 125.295 429.224 127.5C429.563 129.705 430.819 131.342 432.031 131.156Z" fill="#694633"/>
<path d="M408.481 134.236C409.703 134.139 410.53 131.995 410.329 129.445C410.127 126.896 408.972 124.908 407.75 125.005C406.528 125.102 405.701 127.247 405.902 129.796C406.104 132.345 407.259 134.333 408.481 134.236Z" fill="#694633"/>
<path d="M420.4 128.63L428.33 146.92L421.89 147.43" stroke="#694633" stroke-width="2.1427" stroke-miterlimit="10" stroke-linecap="round" stroke-linejoin="round"/>
<path d="M422.49 73.15C422.49 73.15 436.3 68.41 446.76 72.44C450.84 74.01 450.17 84.74 447.35 84.96C444.53 85.18 466.36 89.54 466.36 89.54C466.36 89.54 467.38 102.43 458.57 114.08C454.78 119.09 445.31 126 423.82 110.34C402.74 94.98 392.79 107.53 390.9 109.3C389.01 111.07 397.63 127.37 387.59 131.23C377.54 135.09 376.27 129.52 376.27 129.52C376.27 129.52 362.91 93.67 377.91 93.7C377.91 93.7 372.87 85.72 378.15 76.25C383.12 67.34 396.44 62.73 405.89 63.11C416.06 63.53 422.49 73.15 422.49 73.15Z" fill="url(#paint2_linear)"/>
<path d="M383.37 133.4C382 132.26 380.2 131.63 378.29 131.79C374.4 132.1 371.49 135.5 371.8 139.4C372.11 143.3 375.51 146.2 379.41 145.89C381.33 145.74 383.01 144.83 384.18 143.49" fill="#F6F3E9"/>
<path d="M383.37 133.4C382 132.26 380.2 131.63 378.29 131.79C374.4 132.1 371.49 135.5 371.8 139.4C372.11 143.3 375.51 146.2 379.41 145.89C381.33 145.74 383.01 144.83 384.18 143.49" stroke="#694633" stroke-width="1.7141" stroke-miterlimit="10" stroke-linecap="round" stroke-linejoin="round"/>
<path d="M433.87 155.41C433.87 155.41 423.4 163.38 410.39 155.84" stroke="#694633" stroke-width="2.1427" stroke-miterlimit="10" stroke-linecap="round" stroke-linejoin="round"/>
<path d="M410.32 119.12C410.32 119.12 406.68 114.14 403.5 120.07" stroke="#694633" stroke-width="2.1427" stroke-miterlimit="10" stroke-linecap="round" stroke-linejoin="round"/>
<path d="M427.68 118.15C427.68 118.15 428.94 113.59 432.89 117.33" stroke="#694633" stroke-width="2.1427" stroke-miterlimit="10" stroke-linecap="round" stroke-linejoin="round"/>
<path d="M313.76 249.85C313.76 249.85 281.93 297.25 290.42 312.1C298.91 326.96 387.33 324.13 394.41 322C401.48 319.88 414.22 298.66 393 298.66C371.78 298.66 342.07 293.71 345.6 289.46C349.14 285.22 353.38 275.31 353.38 275.31L313.76 249.85Z" fill="#F6F3E9"/>
<path d="M461.61 347.47H353.38L351.97 398.4C371.42 403.13 390.37 410.89 407.85 415.15V389.91H414.92L420.37 418.07C435.68 421.45 449.81 423.75 462.3 423.87C467.63 423.92 472.81 423.71 477.83 423.27L461.61 347.47Z" fill="#939290"/>
<path d="M521.63 96C519.92 93.68 516.25 74.77 514.41 73.03C514.4 73.02 514.38 73 514.37 72.99C512.76 71.47 510.11 72.79 510.27 75L511.13 86.81L507.6 70.84C507.38 69.85 506.58 69.08 505.57 68.93C504.91 68.84 504.24 68.78 503.57 68.75C501.99 68.68 500.74 70.05 500.99 71.61L503.91 89.43L496.97 71.53C496.51 70.33 495.2 69.7 493.96 70.06C493.27 70.26 492.6 70.48 491.94 70.71C490.65 71.17 489.99 72.59 490.46 73.87L497.34 92.7L486.57 75.95C485.87 74.67 484.23 74.28 483.02 75.09C482.74 75.28 482.49 75.46 482.25 75.63C478.15 78.71 481.49 81.73 484.22 86.79C490.22 97.91 502.15 112.02 488.16 109.76C486.5 109.49 482.42 107.36 480.28 108.45C476.34 110.46 472.77 113.85 485.53 118.95C489.64 120.59 492.75 128.79 498.66 131.42C503.39 133.52 508.51 132.08 508.51 132.08C508.51 132.08 520.98 132.08 523.61 124.86C524.95 121.18 532.79 111.1 521.63 96Z" fill="#F6F3E9"/>
<path d="M398.26 299.23C398.26 299.23 402.89 297.25 408.55 296.54C414.21 295.83 424.65 295.13 436.85 297.25C444.16 298.52 451.56 301.77 454.53 305.74C456.65 308.57 453.12 312.81 443.21 317.06C437.08 319.69 429.67 313 414.21 319.18C407.14 322.01 394.76 325.97 388.74 322.72C383.13 319.68 381.81 313.06 385.91 309.99C394.41 303.61 398.26 299.23 398.26 299.23Z" fill="#F6F3E9"/>
<path d="M402.89 300.08C402.89 300.08 410.67 293.71 414.92 291.59C419.17 289.47 421.99 297.25 421.99 297.25L402.89 300.08Z" fill="#F6F3E9"/>
</g>
<defs>
<linearGradient id="paint0_linear" x1="239.645" y1="341.186" x2="341.314" y2="159.278" gradientUnits="userSpaceOnUse">
<stop stop-color="#0A62F9"/>
<stop offset="1" stop-color="#45B4D3"/>
</linearGradient>
<linearGradient id="paint1_linear" x1="222.914" y1="162.423" x2="312.799" y2="156.602" gradientUnits="userSpaceOnUse">
<stop stop-color="#0A62F9"/>
<stop offset="1" stop-color="#45B4D3"/>
</linearGradient>
<linearGradient id="paint2_linear" x1="466.532" y1="91.9811" x2="370.285" y2="99.5986" gradientUnits="userSpaceOnUse">
<stop stop-color="#0A62F9"/>
<stop offset="1" stop-color="#45B4D3"/>
</linearGradient>
<clipPath id="clip0">
<rect width="718.67" height="423.89" fill="white"/>
</clipPath>
</defs>
</svg>
