<svg width="600" height="342" viewBox="0 0 600 342" fill="none" xmlns="http://www.w3.org/2000/svg">
<path opacity="0.39" d="M223.336 305.489C304.205 284.508 414.878 372.1 460.627 294.416C437.34 194.306 481.646 227.721 505.431 154.481C515.09 94.318 393.435 33.7423 271.003 38.3804C40.483 64.3155 159.444 132.966 149.421 168.481C144.943 198.471 92.1668 214.462 75.8328 244.088C52.7881 289.171 99.5207 337.095 223.336 305.489Z" fill="#EDDDA4"/>
<path d="M563.861 337.216L532.686 277.454L600 280.319L563.861 337.216Z" fill="#96D0ED"/>
<path d="M181.809 226.239C155.343 252.721 155.343 295.654 181.809 322.136C208.276 348.617 251.186 348.617 277.653 322.136L181.809 226.239Z" fill="#96D0ED"/>
<path d="M173.812 90.2262C168.084 90.2262 165.087 87.5671 162.672 85.4302C160.573 83.5725 159.056 82.2247 155.731 82.2247C152.418 82.2247 150.889 83.5725 148.789 85.4302C146.375 87.5671 143.365 90.2262 137.649 90.2262C131.934 90.2262 128.924 87.5671 126.509 85.4302C124.41 83.5725 122.893 82.2247 119.568 82.2247C116.255 82.2247 114.726 83.5725 112.627 85.4302C110.212 87.5671 107.202 90.2262 101.486 90.2262C95.7587 90.2262 92.7613 87.5671 90.3464 85.4302C88.247 83.5725 86.7301 82.2247 83.4051 82.2247C81.6576 82.2247 80.2378 80.8041 80.2378 79.0557C80.2378 77.3073 81.6576 75.8867 83.4051 75.8867C89.1329 75.8867 92.1303 78.5457 94.5452 80.6827C96.6446 82.5404 98.1615 83.8881 101.486 83.8881C104.799 83.8881 106.328 82.5404 108.428 80.6827C110.843 78.5457 113.852 75.8867 119.568 75.8867C125.296 75.8867 128.293 78.5457 130.708 80.6827C132.807 82.5404 134.324 83.8881 137.649 83.8881C140.962 83.8881 142.491 82.5404 144.591 80.6827C147.006 78.5457 150.015 75.8867 155.731 75.8867C161.459 75.8867 164.456 78.5457 166.871 80.6827C168.97 82.5404 170.487 83.8881 173.812 83.8881C177.137 83.8881 178.654 82.5404 180.754 80.6827C183.168 78.5457 186.178 75.8867 191.894 75.8867C193.641 75.8867 195.061 77.3073 195.061 79.0557C195.061 80.8041 193.641 82.2247 191.894 82.2247C188.569 82.2247 187.052 83.5725 184.952 85.4302C182.537 87.5671 179.528 90.2262 173.812 90.2262Z" fill="#96D0ED"/>
<path d="M526.813 14.8859C513.318 14.8859 502.372 25.8379 502.372 39.3396C502.372 52.8414 513.318 63.7934 526.813 63.7934C540.307 63.7934 551.253 52.8414 551.253 39.3396C551.253 25.8379 540.307 14.8859 526.813 14.8859ZM526.813 57.4675C516.813 57.4675 508.695 49.3567 508.695 39.3396C508.695 29.3347 516.801 21.2118 526.813 21.2118C536.812 21.2118 544.93 29.3226 544.93 39.3396C544.93 49.3567 536.812 57.4675 526.813 57.4675Z" fill="#96D0ED"/>
<path d="M55.7855 230.343C48.7107 230.343 42.9829 236.074 42.9829 243.153C42.9829 250.232 48.7107 255.963 55.7855 255.963C62.8603 255.963 68.5882 250.232 68.5882 243.153C68.5882 236.074 62.8482 230.343 55.7855 230.343ZM55.7855 252.648C50.5431 252.648 46.2958 248.398 46.2958 243.153C46.2958 237.908 50.5431 233.658 55.7855 233.658C61.0279 233.658 65.2752 237.908 65.2752 243.153C65.2752 248.398 61.0279 252.648 55.7855 252.648Z" fill="#96D0ED"/>
<path d="M294.715 147.39C294.715 150.608 292.106 153.218 288.89 153.218C285.674 153.218 283.065 150.608 283.065 147.39C283.065 144.173 285.674 141.562 288.89 141.562C292.106 141.562 294.715 144.173 294.715 147.39ZM315.782 141.562C312.566 141.562 309.957 144.173 309.957 147.39C309.957 150.608 312.566 153.218 315.782 153.218C318.998 153.218 321.607 150.608 321.607 147.39C321.607 144.173 318.998 141.562 315.782 141.562ZM342.673 141.562C339.458 141.562 336.849 144.173 336.849 147.39C336.849 150.608 339.458 153.218 342.673 153.218C345.889 153.218 348.498 150.608 348.498 147.39C348.498 144.173 345.889 141.562 342.673 141.562ZM369.565 141.562C366.349 141.562 363.74 144.173 363.74 147.39C363.74 150.608 366.349 153.218 369.565 153.218C372.781 153.218 375.39 150.608 375.39 147.39C375.39 144.173 372.781 141.562 369.565 141.562ZM396.457 141.562C393.241 141.562 390.632 144.173 390.632 147.39C390.632 150.608 393.241 153.218 396.457 153.218C399.672 153.218 402.281 150.608 402.281 147.39C402.281 144.173 399.672 141.562 396.457 141.562ZM423.36 141.562C420.144 141.562 417.535 144.173 417.535 147.39C417.535 150.608 420.144 153.218 423.36 153.218C426.576 153.218 429.185 150.608 429.185 147.39C429.173 144.173 426.576 141.562 423.36 141.562ZM450.252 141.562C447.036 141.562 444.427 144.173 444.427 147.39C444.427 150.608 447.036 153.218 450.252 153.218C453.468 153.218 456.077 150.608 456.077 147.39C456.065 144.173 453.468 141.562 450.252 141.562ZM477.143 141.562C473.928 141.562 471.319 144.173 471.319 147.39C471.319 150.608 473.928 153.218 477.143 153.218C480.359 153.218 482.968 150.608 482.968 147.39C482.968 144.173 480.359 141.562 477.143 141.562Z" fill="#96D0ED"/>
<path d="M309.217 123.689C309.217 126.907 306.608 129.517 303.392 129.517C300.176 129.517 297.567 126.907 297.567 123.689C297.567 120.472 300.176 117.861 303.392 117.861C306.608 117.873 309.217 120.472 309.217 123.689ZM330.295 117.873C327.08 117.873 324.471 120.484 324.471 123.701C324.471 126.919 327.08 129.529 330.295 129.529C333.511 129.529 336.12 126.919 336.12 123.701C336.108 120.472 333.499 117.873 330.295 117.873ZM357.187 117.873C353.971 117.873 351.362 120.484 351.362 123.701C351.362 126.919 353.971 129.529 357.187 129.529C360.403 129.529 363.012 126.919 363.012 123.701C363 120.472 360.403 117.873 357.187 117.873ZM384.079 117.873C380.863 117.873 378.254 120.484 378.254 123.701C378.254 126.919 380.863 129.529 384.079 129.529C387.294 129.529 389.903 126.919 389.903 123.701C389.903 120.472 387.294 117.873 384.079 117.873ZM410.97 117.873C407.754 117.873 405.145 120.484 405.145 123.701C405.145 126.919 407.754 129.529 410.97 129.529C414.186 129.529 416.795 126.919 416.795 123.701C416.795 120.472 414.186 117.873 410.97 117.873ZM437.862 117.873C434.646 117.873 432.037 120.484 432.037 123.701C432.037 126.919 434.646 129.529 437.862 129.529C441.078 129.529 443.687 126.919 443.687 123.701C443.687 120.472 441.078 117.873 437.862 117.873ZM464.753 117.873C461.538 117.873 458.928 120.484 458.928 123.701C458.928 126.919 461.538 129.529 464.753 129.529C467.969 129.529 470.578 126.919 470.578 123.701C470.578 120.472 467.969 117.873 464.753 117.873ZM491.645 117.873C488.429 117.873 485.82 120.484 485.82 123.701C485.82 126.919 488.429 129.529 491.645 129.529C494.861 129.529 497.47 126.919 497.47 123.701C497.47 120.472 494.861 117.873 491.645 117.873Z" fill="#96D0ED"/>
<path d="M173.533 9.6892L180.911 2.30694C181.433 1.78484 181.433 0.92277 180.911 0.400669C180.39 -0.121431 179.528 -0.121431 179.006 0.400669L171.628 7.78292L164.25 0.400669C163.728 -0.121431 162.866 -0.121431 162.344 0.400669C161.823 0.92277 161.823 1.78484 162.344 2.30694L169.723 9.6892L162.344 17.0715C161.823 17.5936 161.823 18.4556 162.344 18.9777C162.866 19.4998 163.728 19.4998 164.25 18.9777L171.628 11.5955L179.006 18.9777C179.528 19.4998 180.39 19.4998 180.911 18.9777C181.433 18.4556 181.433 17.5936 180.911 17.0715L173.533 9.6892Z" fill="#96D0ED"/>
<path d="M337.941 322.245H236.539C224.331 322.245 214.429 312.337 214.429 300.123V61.4743C214.429 49.2596 224.331 39.3518 236.539 39.3518H337.941C350.149 39.3518 360.051 49.2596 360.051 61.4743V300.135C360.051 312.35 350.149 322.245 337.941 322.245Z" fill="#EDDDA4" stroke="#694633" stroke-width="2" stroke-miterlimit="10"/>
<path d="M337.941 314.96H236.539C224.331 314.96 214.429 305.052 214.429 292.838V67.5452C214.429 55.3305 224.331 45.4227 236.539 45.4227H337.941C350.149 45.4227 360.051 55.3305 360.051 67.5452V292.85C360.051 305.064 350.149 314.96 337.941 314.96Z" fill="#F6F3E9" stroke="#694633" stroke-width="2" stroke-miterlimit="10"/>
<path d="M287.24 56.3383C288.58 56.3383 289.667 55.251 289.667 53.9099C289.667 52.5687 288.58 51.4815 287.24 51.4815C285.899 51.4815 284.813 52.5687 284.813 53.9099C284.813 55.251 285.899 56.3383 287.24 56.3383Z" stroke="#694633" stroke-width="2" stroke-miterlimit="10"/>
<path d="M345.938 241.757V243.578H344.117" stroke="#694633" stroke-width="2" stroke-linecap="round" stroke-linejoin="round"/>
<path d="M339.397 243.578H234.379" stroke="#694633" stroke-width="2" stroke-linecap="round" stroke-linejoin="round" stroke-dasharray="2.92 2.92"/>
<path d="M232.013 243.578H230.192V241.757" stroke="#694633" stroke-width="2" stroke-linecap="round" stroke-linejoin="round"/>
<path d="M230.192 237.009V131.448" stroke="#694633" stroke-width="2" stroke-linecap="round" stroke-linejoin="round" stroke-dasharray="2.93 2.93"/>
<path d="M230.192 129.068V127.247H232.013" stroke="#694633" stroke-width="2" stroke-linecap="round" stroke-linejoin="round"/>
<path d="M236.733 127.247H341.763" stroke="#694633" stroke-width="2" stroke-linecap="round" stroke-linejoin="round" stroke-dasharray="2.92 2.92"/>
<path d="M344.117 127.247H345.938V129.068" stroke="#694633" stroke-width="2" stroke-linecap="round" stroke-linejoin="round"/>
<path d="M345.938 133.815V239.389" stroke="#694633" stroke-width="2" stroke-linecap="round" stroke-linejoin="round" stroke-dasharray="2.93 2.93"/>
<path d="M345.938 241.757V243.578H344.117" stroke="#694633" stroke-width="2" stroke-linecap="round" stroke-linejoin="round"/>
<path d="M339.397 243.578H234.379" stroke="#694633" stroke-width="2" stroke-linecap="round" stroke-linejoin="round" stroke-dasharray="2.92 2.92"/>
<path d="M232.013 243.578H230.192V241.757" stroke="#694633" stroke-width="2" stroke-linecap="round" stroke-linejoin="round"/>
<path d="M230.192 235.637V227.976" stroke="#694633" stroke-width="2" stroke-linecap="round" stroke-linejoin="round" stroke-dasharray="3.78 3.78"/>
<path d="M230.192 224.916V223.095H232.013" stroke="#694633" stroke-width="2" stroke-linecap="round" stroke-linejoin="round"/>
<path d="M236.733 223.095H341.763" stroke="#694633" stroke-width="2" stroke-linecap="round" stroke-linejoin="round" stroke-dasharray="2.92 2.92"/>
<path d="M344.117 223.095H345.938V224.916" stroke="#694633" stroke-width="2" stroke-linecap="round" stroke-linejoin="round"/>
<path d="M345.938 231.035V238.697" stroke="#694633" stroke-width="2" stroke-linecap="round" stroke-linejoin="round" stroke-dasharray="3.78 3.78"/>
<path d="M283.077 191.963L282.228 193.578L281.391 191.963" stroke="#694633" stroke-width="2" stroke-linecap="round" stroke-linejoin="round"/>
<path d="M279.085 187.555L273.078 176.045C272.411 174.758 270.566 174.758 269.899 176.045L259.972 195.083C259.353 196.273 260.215 197.706 261.562 197.706H277.956" stroke="#694633" stroke-width="2" stroke-linecap="round" stroke-linejoin="round" stroke-dasharray="3.07 3.07"/>
<path d="M280.444 197.706H281.427C281.718 197.706 281.997 197.633 282.228 197.512C282.471 197.633 282.738 197.706 283.029 197.706H284.012" stroke="#694633" stroke-width="2" stroke-linecap="round" stroke-linejoin="round"/>
<path d="M288.866 197.706H315.782C317.129 197.706 317.99 196.273 317.371 195.083L301.001 163.697C300.334 162.41 298.489 162.41 297.822 163.697L284.194 189.826" stroke="#694633" stroke-width="2" stroke-linecap="round" stroke-linejoin="round" stroke-dasharray="2.99 2.99"/>
<path d="M242.582 282.274V285.31H236.794V282.274" stroke="#694633" stroke-width="2" stroke-linecap="round" stroke-linejoin="round"/>
<path d="M236.794 275.705V272.67H242.582V275.705" stroke="#694633" stroke-width="2" stroke-linecap="round" stroke-linejoin="round"/>
<path d="M248.371 293.493V296.529H242.582V293.493" stroke="#694633" stroke-width="2" stroke-linecap="round" stroke-linejoin="round"/>
<path d="M242.582 288.212V267.121" stroke="#694633" stroke-width="2" stroke-linecap="round" stroke-linejoin="round" stroke-dasharray="5.43 5.43"/>
<path d="M242.582 264.486V261.451H248.371V264.486" stroke="#694633" stroke-width="2" stroke-linecap="round" stroke-linejoin="round"/>
<path d="M248.371 269.756V290.846" stroke="#694633" stroke-width="2" stroke-linecap="round" stroke-linejoin="round" stroke-dasharray="5.43 5.43"/>
<path d="M254.159 290.033V293.068H248.371V290.033" stroke="#694633" stroke-width="2" stroke-linecap="round" stroke-linejoin="round"/>
<path d="M248.371 286.014V269.95" stroke="#694633" stroke-width="2" stroke-linecap="round" stroke-linejoin="round" stroke-dasharray="4.14 4.14"/>
<path d="M248.371 267.935V264.899H254.159V267.935" stroke="#694633" stroke-width="2" stroke-linecap="round" stroke-linejoin="round"/>
<path d="M254.159 271.954V288.029" stroke="#694633" stroke-width="2" stroke-linecap="round" stroke-linejoin="round" stroke-dasharray="4.14 4.14"/>
<path d="M259.948 283.998V287.034H254.159V283.998" stroke="#694633" stroke-width="2" stroke-linecap="round" stroke-linejoin="round"/>
<path d="M254.159 280.914V275.523" stroke="#694633" stroke-width="2" stroke-linecap="round" stroke-linejoin="round" stroke-dasharray="3.18 3.18"/>
<path d="M254.159 273.969V270.934H259.948V273.969" stroke="#694633" stroke-width="2" stroke-linecap="round" stroke-linejoin="round"/>
<path d="M259.948 277.065V282.456" stroke="#694633" stroke-width="2" stroke-linecap="round" stroke-linejoin="round" stroke-dasharray="3.18 3.18"/>
<path d="M265.736 284.29V287.325H259.948V284.29" stroke="#694633" stroke-width="2" stroke-linecap="round" stroke-linejoin="round"/>
<path d="M259.948 281.024V275.317" stroke="#694633" stroke-width="2" stroke-linecap="round" stroke-linejoin="round" stroke-dasharray="3.36 3.36"/>
<path d="M259.948 273.69V270.654H265.736V273.69" stroke="#694633" stroke-width="2" stroke-linecap="round" stroke-linejoin="round"/>
<path d="M265.736 276.944V282.663" stroke="#694633" stroke-width="2" stroke-linecap="round" stroke-linejoin="round" stroke-dasharray="3.36 3.36"/>
<path d="M271.525 298.083V301.118H265.736V298.083" stroke="#694633" stroke-width="2" stroke-linecap="round" stroke-linejoin="round"/>
<path d="M265.736 293.153V262.349" stroke="#694633" stroke-width="2" stroke-linecap="round" stroke-linejoin="round" stroke-dasharray="5.07 5.07"/>
<path d="M265.736 259.885V256.849H271.525V259.885" stroke="#694633" stroke-width="2" stroke-linecap="round" stroke-linejoin="round"/>
<path d="M271.525 264.814V295.618" stroke="#694633" stroke-width="2" stroke-linecap="round" stroke-linejoin="round" stroke-dasharray="5.07 5.07"/>
<path d="M277.313 279.979V283.015H271.525V279.979" stroke="#694633" stroke-width="2" stroke-linecap="round" stroke-linejoin="round"/>
<path d="M271.525 278V274.965H277.313V278" stroke="#694633" stroke-width="2" stroke-linecap="round" stroke-linejoin="round"/>
<path d="M283.102 290.033V293.068H277.313V290.033" stroke="#694633" stroke-width="2" stroke-linecap="round" stroke-linejoin="round"/>
<path d="M277.313 286.281V271.274" stroke="#694633" stroke-width="2" stroke-linecap="round" stroke-linejoin="round" stroke-dasharray="3.86 3.86"/>
<path d="M277.313 269.404V266.368H283.102V269.404" stroke="#694633" stroke-width="2" stroke-linecap="round" stroke-linejoin="round"/>
<path d="M283.102 273.156V288.163" stroke="#694633" stroke-width="2" stroke-linecap="round" stroke-linejoin="round" stroke-dasharray="3.86 3.86"/>
<path d="M294.679 287.447V290.482H288.89V287.447" stroke="#694633" stroke-width="2" stroke-linecap="round" stroke-linejoin="round"/>
<path d="M288.89 282.238V273.131" stroke="#694633" stroke-width="2" stroke-linecap="round" stroke-linejoin="round" stroke-dasharray="5.36 5.36"/>
<path d="M288.89 270.521V267.485H294.679V270.521" stroke="#694633" stroke-width="2" stroke-linecap="round" stroke-linejoin="round"/>
<path d="M294.679 275.73V284.848" stroke="#694633" stroke-width="2" stroke-linecap="round" stroke-linejoin="round" stroke-dasharray="5.36 5.36"/>
<path d="M300.467 293.493V296.529H294.679V293.493" stroke="#694633" stroke-width="2" stroke-linecap="round" stroke-linejoin="round"/>
<path d="M294.679 288.212V267.121" stroke="#694633" stroke-width="2" stroke-linecap="round" stroke-linejoin="round" stroke-dasharray="5.43 5.43"/>
<path d="M294.679 264.486V261.451H300.467V264.486" stroke="#694633" stroke-width="2" stroke-linecap="round" stroke-linejoin="round"/>
<path d="M300.467 269.756V290.846" stroke="#694633" stroke-width="2" stroke-linecap="round" stroke-linejoin="round" stroke-dasharray="5.43 5.43"/>
<path d="M306.256 282.566V285.601H300.467V282.566" stroke="#694633" stroke-width="2" stroke-linecap="round" stroke-linejoin="round"/>
<path d="M300.467 275.414V272.379H306.256V275.414" stroke="#694633" stroke-width="2" stroke-linecap="round" stroke-linejoin="round"/>
<path d="M288.89 282.566V285.601H283.102V282.566" stroke="#694633" stroke-width="2" stroke-linecap="round" stroke-linejoin="round"/>
<path d="M283.102 275.414V272.379H288.89V275.414" stroke="#694633" stroke-width="2" stroke-linecap="round" stroke-linejoin="round"/>
<path d="M312.044 284.29V287.325H306.256V284.29" stroke="#694633" stroke-width="2" stroke-linecap="round" stroke-linejoin="round"/>
<path d="M306.256 281.024V275.317" stroke="#694633" stroke-width="2" stroke-linecap="round" stroke-linejoin="round" stroke-dasharray="3.36 3.36"/>
<path d="M306.256 273.69V270.654H312.044V273.69" stroke="#694633" stroke-width="2" stroke-linecap="round" stroke-linejoin="round"/>
<path d="M312.044 276.944V282.663" stroke="#694633" stroke-width="2" stroke-linecap="round" stroke-linejoin="round" stroke-dasharray="3.36 3.36"/>
<path d="M317.833 283.998V287.034H312.044V283.998" stroke="#694633" stroke-width="2" stroke-linecap="round" stroke-linejoin="round"/>
<path d="M312.044 280.914V275.523" stroke="#694633" stroke-width="2" stroke-linecap="round" stroke-linejoin="round" stroke-dasharray="3.18 3.18"/>
<path d="M312.044 273.969V270.934H317.833V273.969" stroke="#694633" stroke-width="2" stroke-linecap="round" stroke-linejoin="round"/>
<path d="M317.833 277.065V282.456" stroke="#694633" stroke-width="2" stroke-linecap="round" stroke-linejoin="round" stroke-dasharray="3.18 3.18"/>
<path d="M323.621 287.447V290.482H317.833V287.447" stroke="#694633" stroke-width="2" stroke-linecap="round" stroke-linejoin="round"/>
<path d="M317.833 282.238V273.131" stroke="#694633" stroke-width="2" stroke-linecap="round" stroke-linejoin="round" stroke-dasharray="5.36 5.36"/>
<path d="M317.833 270.521V267.485H323.621V270.521" stroke="#694633" stroke-width="2" stroke-linecap="round" stroke-linejoin="round"/>
<path d="M323.621 275.73V284.848" stroke="#694633" stroke-width="2" stroke-linecap="round" stroke-linejoin="round" stroke-dasharray="5.36 5.36"/>
<path d="M329.41 298.083V301.118H323.621V298.083" stroke="#694633" stroke-width="2" stroke-linecap="round" stroke-linejoin="round"/>
<path d="M323.621 293.153V262.349" stroke="#694633" stroke-width="2" stroke-linecap="round" stroke-linejoin="round" stroke-dasharray="5.07 5.07"/>
<path d="M323.621 259.885V256.849H329.41V259.885" stroke="#694633" stroke-width="2" stroke-linecap="round" stroke-linejoin="round"/>
<path d="M329.41 264.814V295.618" stroke="#694633" stroke-width="2" stroke-linecap="round" stroke-linejoin="round" stroke-dasharray="5.07 5.07"/>
<path d="M335.198 287.447V290.482H329.41V287.447" stroke="#694633" stroke-width="2" stroke-linecap="round" stroke-linejoin="round"/>
<path d="M329.41 282.238V273.131" stroke="#694633" stroke-width="2" stroke-linecap="round" stroke-linejoin="round" stroke-dasharray="5.36 5.36"/>
<path d="M329.41 270.521V267.485H335.198V270.521" stroke="#694633" stroke-width="2" stroke-linecap="round" stroke-linejoin="round"/>
<path d="M335.198 275.73V284.848" stroke="#694633" stroke-width="2" stroke-linecap="round" stroke-linejoin="round" stroke-dasharray="5.36 5.36"/>
<path d="M340.986 282.031V285.067H335.198V282.031" stroke="#694633" stroke-width="2" stroke-linecap="round" stroke-linejoin="round"/>
<path d="M335.198 275.936V272.901H340.986V275.936" stroke="#694633" stroke-width="2" stroke-linecap="round" stroke-linejoin="round"/>
<path d="M346.775 276.932H340.987V279.809H346.775V276.932Z" stroke="#694633" stroke-width="2" stroke-linecap="round" stroke-linejoin="round"/>
<path d="M236.794 276.932H231.005V279.809H236.794V276.932Z" stroke="#694633" stroke-width="2" stroke-linecap="round" stroke-linejoin="round"/>
<path d="M246.272 112.324L244.815 113.405L245.544 111.742" stroke="#694633" stroke-width="2" stroke-linecap="round" stroke-linejoin="round"/>
<path d="M247.133 108.099L249.111 103.546" stroke="#694633" stroke-width="2" stroke-linecap="round" stroke-linejoin="round" stroke-dasharray="2.45 2.45"/>
<path d="M249.912 101.725L250.64 100.049H248.82" stroke="#694633" stroke-width="2" stroke-linecap="round" stroke-linejoin="round"/>
<path d="M243.978 99.3083C240.313 97.8027 237.74 94.1966 237.74 89.9955V78.5579C237.74 72.9969 242.243 68.4922 247.801 68.4922H329.106C334.664 68.4922 339.166 72.9969 339.166 78.5579V89.9955C339.166 95.5565 334.664 100.061 329.106 100.061H262.727L248.25 110.855" stroke="#694633" stroke-width="2" stroke-linecap="round" stroke-linejoin="round" stroke-dasharray="3.05 3.05"/>
<path d="M272.92 89.7405V81.0712H269.826V79.3107H278.114V81.0712H275.032V89.7405H272.92Z" fill="#694633"/>
<path d="M282.75 87.3364L284.74 87.6764C284.485 88.4049 284.085 88.9635 283.527 89.3399C282.968 89.7163 282.289 89.9105 281.451 89.9105C280.141 89.9105 279.17 89.4856 278.539 88.6235C278.041 87.9314 277.787 87.0693 277.787 86.0251C277.787 84.7745 278.114 83.791 278.77 83.0868C279.425 82.3826 280.25 82.0183 281.245 82.0183C282.374 82.0183 283.26 82.3947 283.903 83.1354C284.546 83.876 284.861 85.0173 284.837 86.5472H279.825C279.837 87.1422 279.995 87.6036 280.311 87.9314C280.626 88.2592 281.002 88.4292 281.464 88.4292C281.779 88.4292 282.034 88.3442 282.252 88.1742C282.471 88.0043 282.641 87.7128 282.75 87.3364ZM282.859 85.3088C282.847 84.7259 282.701 84.2888 282.41 83.9853C282.119 83.6817 281.779 83.536 281.367 83.536C280.93 83.536 280.566 83.6939 280.286 84.0096C280.007 84.3253 279.862 84.7624 279.862 85.3088H282.859V85.3088Z" fill="#694633"/>
<path d="M285.517 89.7405L288.235 85.843L285.626 82.1761H288.065L289.4 84.2524L290.808 82.1761H293.15L290.589 85.758L293.38 89.7405H290.929L289.388 87.3971L287.834 89.7405H285.517V89.7405Z" fill="#694633"/>
<path d="M298.028 82.1883V83.7789H296.657V86.8265C296.657 87.4457 296.669 87.7978 296.693 87.9071C296.718 88.0164 296.778 88.0893 296.875 88.1621C296.972 88.235 297.082 88.2592 297.215 88.2592C297.397 88.2592 297.664 88.1985 298.016 88.065L298.186 89.6191C297.725 89.8134 297.191 89.9227 296.608 89.9227C296.244 89.9227 295.929 89.862 295.637 89.7405C295.346 89.6191 295.14 89.4613 295.006 89.267C294.873 89.0727 294.776 88.8178 294.727 88.4899C294.679 88.2592 294.667 87.7857 294.667 87.0815V83.7789H293.744V82.1883H294.667V80.6827L296.669 79.5171V82.1883H298.028V82.1883Z" fill="#694633"/>
<path d="M298.95 85.8551C298.95 85.1873 299.108 84.5438 299.436 83.9246C299.763 83.3053 300.225 82.8318 300.831 82.504C301.438 82.1761 302.106 82.0183 302.846 82.0183C303.987 82.0183 304.921 82.3947 305.649 83.1354C306.377 83.876 306.741 84.8109 306.741 85.9523C306.741 87.0936 306.377 88.0407 305.637 88.7935C304.897 89.5463 303.974 89.9227 302.858 89.9227C302.166 89.9227 301.511 89.7648 300.88 89.4491C300.249 89.1334 299.776 88.6721 299.448 88.0771C299.12 87.4822 298.95 86.7294 298.95 85.8551ZM301.001 85.9644C301.001 86.7172 301.183 87.2879 301.535 87.6886C301.887 88.0892 302.324 88.2835 302.846 88.2835C303.368 88.2835 303.804 88.0892 304.156 87.6886C304.508 87.2879 304.69 86.7172 304.69 85.9523C304.69 85.2116 304.508 84.6409 304.156 84.2403C303.804 83.8396 303.368 83.6453 302.846 83.6453C302.324 83.6453 301.887 83.8396 301.535 84.2403C301.183 84.6409 301.001 85.2116 301.001 85.9644Z" fill="#694633"/>
<path d="M560.087 305.089H440.507C432.498 305.089 425.945 298.532 425.945 290.518V214.935C425.945 206.922 432.498 200.365 440.507 200.365H560.087C568.097 200.365 574.65 206.922 574.65 214.935V290.518C574.65 298.532 568.097 305.089 560.087 305.089Z" fill="#EDDDA4"/>
<path d="M450.628 263.564H444.84V276.215H450.628V263.564Z" fill="#D3B966"/>
<path d="M456.417 252.357H450.628V287.422H456.417V252.357Z" fill="#D3B966"/>
<path d="M462.205 255.805H456.417V283.974H462.205V255.805Z" fill="#D3B966"/>
<path d="M467.994 261.839H462.205V277.939H467.994V261.839Z" fill="#D3B966"/>
<path d="M473.782 261.56H467.993V278.231H473.782V261.56Z" fill="#D3B966"/>
<path d="M479.57 247.755H473.782V292.024H479.57V247.755Z" fill="#D3B966"/>
<path d="M485.359 265.87H479.57V273.921H485.359V265.87Z" fill="#D3B966"/>
<path d="M491.147 257.262H485.359V283.974H491.147V257.262Z" fill="#D3B966"/>
<path d="M502.724 258.391H496.936V281.388H502.724V258.391Z" fill="#D3B966"/>
<path d="M508.513 252.357H502.724V287.422H508.513V252.357Z" fill="#D3B966"/>
<path d="M514.301 263.284H508.513V276.507H514.301V263.284Z" fill="#D3B966"/>
<path d="M496.936 263.284H491.147V276.507H496.936V263.284Z" fill="#D3B966"/>
<path d="M520.09 261.56H514.301V278.231H520.09V261.56Z" fill="#D3B966"/>
<path d="M525.878 261.839H520.09V277.939H525.878V261.839Z" fill="#D3B966"/>
<path d="M531.667 258.391H525.878V281.388H531.667V258.391Z" fill="#D3B966"/>
<path d="M537.455 247.755H531.667V292.024H537.455V247.755Z" fill="#D3B966"/>
<path d="M543.244 258.391H537.455V281.388H543.244V258.391Z" fill="#D3B966"/>
<path d="M549.032 263.284H543.244V276.507H549.032V263.284Z" fill="#D3B966"/>
<path d="M554.821 267.837H549.032V270.715H554.821V267.837Z" fill="#D3B966"/>
<path d="M444.84 267.837H439.051V270.715H444.84V267.837Z" fill="#D3B966"/>
<path d="M139.045 237.604H23.9428C19.562 237.604 15.97 234.01 15.97 229.627V122.524C15.97 118.14 19.562 114.546 23.9428 114.546H139.045C143.426 114.546 147.018 118.14 147.018 122.524V229.627C147.018 234.01 143.426 237.604 139.045 237.604Z" fill="#EDDDA4"/>
<path d="M139.785 227.575L0 229.882V211.73L139.785 209.423V227.575Z" fill="#D3B966"/>
<path d="M77.9808 161.9L88.1864 179.59C89.0844 181.144 87.9559 183.099 86.1599 183.099H65.7485C63.9525 183.099 62.8239 181.157 63.7219 179.59L73.9276 161.9C74.8377 160.345 77.0828 160.345 77.9808 161.9Z" fill="#D3B966"/>
<path d="M106.814 149.551L124.155 179.59C125.053 181.145 123.924 183.099 122.128 183.099H87.4582C85.6622 183.099 84.5336 181.157 85.4316 179.59L102.773 149.551C103.671 147.985 105.916 147.985 106.814 149.551Z" fill="#D3B966"/>
<path d="M554.02 299.018H434.44C426.43 299.018 419.877 292.461 419.877 284.448V208.864C419.877 200.851 426.43 194.294 434.44 194.294H554.02C562.029 194.294 568.582 200.851 568.582 208.864V284.448C568.582 292.461 562.029 299.018 554.02 299.018Z" stroke="#694633" stroke-width="2" stroke-miterlimit="10" stroke-linecap="round" stroke-linejoin="round"/>
<path d="M537.14 208.561L545.319 216.744L554.614 207.444" stroke="#694633" stroke-width="2" stroke-miterlimit="10" stroke-linecap="round" stroke-linejoin="round"/>
<path d="M443.626 216.976V206.546H446.781L448.674 213.661L450.543 206.546H453.698V216.976H451.744V208.768L449.669 216.976H447.643L445.58 208.768V216.976H443.626Z" fill="#694633"/>
<path d="M460.737 216.975V215.846C460.457 216.247 460.106 216.562 459.657 216.805C459.208 217.048 458.734 217.157 458.237 217.157C457.727 217.157 457.278 217.048 456.865 216.817C456.453 216.587 456.174 216.283 455.992 215.882C455.81 215.482 455.725 214.923 455.725 214.207V209.423H457.727V212.895C457.727 213.964 457.763 214.607 457.836 214.85C457.909 215.093 458.043 215.275 458.237 215.421C458.431 215.567 458.674 215.627 458.977 215.627C459.317 215.627 459.62 215.53 459.899 215.348C460.178 215.166 460.36 214.923 460.457 214.656C460.555 214.389 460.603 213.697 460.603 212.616V209.423H462.605V216.975H460.737ZM458.152 208.5L459.135 206.375H461.38L459.426 208.5H458.152Z" fill="#694633"/>
<path d="M463.952 214.826L465.955 214.522C466.04 214.911 466.21 215.202 466.477 215.409C466.743 215.615 467.108 215.712 467.569 215.712C468.09 215.712 468.479 215.615 468.734 215.433C468.904 215.3 469.001 215.117 469.001 214.899C469.001 214.741 468.952 214.62 468.855 214.522C468.758 214.425 468.527 214.34 468.188 214.255C466.574 213.903 465.554 213.575 465.117 213.284C464.523 212.871 464.219 212.313 464.219 211.584C464.219 210.928 464.474 210.382 464.996 209.933C465.518 209.484 466.319 209.265 467.399 209.265C468.43 209.265 469.195 209.435 469.704 209.775C470.214 210.115 470.554 210.613 470.748 211.268L468.867 211.621C468.782 211.329 468.637 211.098 468.406 210.941C468.175 210.783 467.86 210.71 467.447 210.71C466.926 210.71 466.549 210.783 466.319 210.929C466.161 211.038 466.088 211.171 466.088 211.329C466.088 211.475 466.149 211.596 466.282 211.693C466.464 211.827 467.083 212.009 468.151 212.252C469.219 212.495 469.959 212.786 470.384 213.138C470.797 213.49 471.015 213.988 471.015 214.62C471.015 215.312 470.724 215.907 470.153 216.404C469.583 216.902 468.722 217.157 467.581 217.157C466.549 217.157 465.736 216.951 465.142 216.526C464.547 216.101 464.147 215.542 463.952 214.826Z" fill="#694633"/>
<path d="M472.763 208.403V206.557H474.765V208.403H472.763ZM472.763 216.975V209.423H474.765V216.975H472.763Z" fill="#694633"/>
<path d="M483.393 211.657L481.427 212.009C481.366 211.621 481.209 211.317 480.978 211.123C480.748 210.929 480.444 210.819 480.068 210.819C479.57 210.819 479.17 210.989 478.879 211.329C478.587 211.669 478.43 212.252 478.43 213.053C478.43 213.952 478.575 214.583 478.879 214.947C479.182 215.312 479.583 215.506 480.092 215.506C480.468 215.506 480.784 215.397 481.027 215.178C481.269 214.96 481.439 214.595 481.536 214.061L483.502 214.401C483.296 215.3 482.908 215.98 482.325 216.441C481.743 216.902 480.966 217.133 479.995 217.133C478.891 217.133 478.005 216.781 477.35 216.089C476.694 215.397 476.367 214.425 476.367 213.199C476.367 211.948 476.694 210.977 477.35 210.285C478.005 209.593 478.903 209.241 480.019 209.241C480.942 209.241 481.67 209.435 482.216 209.836C482.762 210.236 483.15 210.844 483.393 211.657Z" fill="#694633"/>
<path d="M486.403 211.73L484.594 211.402C484.801 210.674 485.153 210.127 485.65 209.775C486.148 209.423 486.888 209.253 487.871 209.253C488.757 209.253 489.424 209.362 489.861 209.569C490.298 209.775 490.601 210.042 490.783 210.37C490.965 210.698 491.05 211.293 491.05 212.155L491.026 214.486C491.026 215.154 491.062 215.64 491.123 215.955C491.184 216.271 491.305 216.611 491.487 216.963H489.509C489.461 216.829 489.388 216.635 489.315 216.368C489.279 216.247 489.254 216.174 489.242 216.137C488.902 216.465 488.538 216.72 488.15 216.89C487.762 217.06 487.349 217.145 486.9 217.145C486.123 217.145 485.505 216.939 485.068 216.514C484.631 216.089 484.4 215.555 484.4 214.911C484.4 214.486 484.497 214.098 484.704 213.77C484.91 213.442 485.189 213.175 485.565 213.005C485.941 212.835 486.463 212.677 487.155 212.543C488.089 212.373 488.733 212.203 489.097 212.058V211.863C489.097 211.475 488.999 211.208 488.817 211.038C488.635 210.868 488.271 210.795 487.75 210.795C487.398 210.795 487.119 210.868 486.912 211.001C486.706 211.135 486.524 211.378 486.403 211.73ZM489.072 213.345C488.817 213.43 488.417 213.527 487.859 213.648C487.301 213.77 486.937 213.879 486.767 214C486.512 214.183 486.378 214.425 486.378 214.705C486.378 214.984 486.488 215.227 486.694 215.433C486.9 215.64 487.167 215.737 487.495 215.737C487.859 215.737 488.199 215.615 488.526 215.385C488.769 215.202 488.927 214.984 488.999 214.729C489.048 214.559 489.072 214.231 489.072 213.758V213.345V213.345Z" fill="#694633"/>
<path d="M493.004 216.975V214.972H495.006V216.975H493.004Z" fill="#694633"/>
<path d="M496.899 209.423H498.744V210.455C499.399 209.654 500.188 209.253 501.098 209.253C501.584 209.253 501.996 209.35 502.36 209.556C502.724 209.763 503.003 210.054 503.234 210.455C503.562 210.054 503.926 209.751 504.302 209.556C504.678 209.362 505.091 209.253 505.528 209.253C506.086 209.253 506.547 209.362 506.935 209.593C507.324 209.824 507.603 210.151 507.797 210.589C507.93 210.916 508.003 211.438 508.003 212.155V216.987H506.001V212.665C506.001 211.912 505.928 211.426 505.795 211.208C505.613 210.929 505.321 210.783 504.945 210.783C504.666 210.783 504.399 210.868 504.156 211.038C503.914 211.208 503.732 211.463 503.622 211.791C503.513 212.118 503.465 212.641 503.465 213.357V216.987H501.462V212.847C501.462 212.106 501.426 211.633 501.353 211.426C501.28 211.22 501.171 211.05 501.025 210.953C500.88 210.856 500.674 210.795 500.419 210.795C500.115 210.795 499.836 210.88 499.581 211.05C499.326 211.22 499.157 211.451 499.047 211.766C498.938 212.082 498.89 212.604 498.89 213.32V216.987H496.887V209.423H496.899Z" fill="#694633"/>
<path d="M509.945 209.423H511.814V210.528C512.056 210.151 512.384 209.836 512.797 209.605C513.209 209.374 513.67 209.253 514.168 209.253C515.042 209.253 515.794 209.593 516.401 210.285C517.008 210.977 517.323 211.936 517.323 213.163C517.323 214.425 517.02 215.409 516.401 216.101C515.782 216.793 515.042 217.145 514.156 217.145C513.743 217.145 513.355 217.06 513.027 216.89C512.7 216.72 512.335 216.441 511.959 216.04V219.841H509.957V209.423H509.945ZM511.923 213.078C511.923 213.928 512.093 214.559 512.433 214.96C512.772 215.36 513.185 215.567 513.658 215.567C514.119 215.567 514.508 215.385 514.823 215.008C515.139 214.632 515.284 214.025 515.284 213.175C515.284 212.386 515.127 211.791 514.811 211.414C514.496 211.038 514.095 210.844 513.634 210.844C513.149 210.844 512.736 211.038 512.42 211.414C512.105 211.791 511.923 212.337 511.923 213.078Z" fill="#694633"/>
<path d="M518.391 214.207L520.32 213.976C520.381 214.474 520.551 214.85 520.818 215.105C521.085 215.36 521.413 215.494 521.801 215.494C522.213 215.494 522.565 215.336 522.845 215.02C523.124 214.705 523.269 214.28 523.269 213.758C523.269 213.26 523.136 212.859 522.869 212.568C522.602 212.276 522.274 212.131 521.886 212.131C521.631 212.131 521.328 212.179 520.964 212.276L521.182 210.649C521.728 210.661 522.141 210.552 522.42 210.297C522.699 210.042 522.845 209.714 522.845 209.301C522.845 208.949 522.735 208.67 522.529 208.464C522.323 208.257 522.044 208.148 521.692 208.148C521.352 208.148 521.061 208.269 520.818 208.5C520.575 208.731 520.43 209.083 520.381 209.544L518.536 209.229C518.67 208.597 518.852 208.099 519.119 207.711C519.386 207.322 519.738 207.043 520.199 206.825C520.66 206.606 521.182 206.497 521.752 206.497C522.735 206.497 523.524 206.812 524.119 207.432C524.604 207.942 524.847 208.524 524.847 209.168C524.847 210.079 524.349 210.819 523.342 211.353C523.937 211.487 524.422 211.766 524.774 212.216C525.126 212.665 525.308 213.199 525.308 213.83C525.308 214.741 524.968 215.53 524.301 216.174C523.633 216.817 522.796 217.145 521.801 217.145C520.854 217.145 520.078 216.878 519.459 216.332C518.84 215.785 518.5 215.093 518.391 214.207Z" fill="#694633"/>
<path d="M448.201 259.921H442.412V272.573H448.201V259.921Z" stroke="#694633" stroke-width="2" stroke-miterlimit="10" stroke-linecap="round" stroke-linejoin="round"/>
<path d="M453.989 248.714H448.201V283.78H453.989V248.714Z" stroke="#694633" stroke-width="2" stroke-miterlimit="10" stroke-linecap="round" stroke-linejoin="round"/>
<path d="M459.778 252.162H453.99V280.331H459.778V252.162Z" stroke="#694633" stroke-width="2" stroke-miterlimit="10" stroke-linecap="round" stroke-linejoin="round"/>
<path d="M465.566 258.197H459.778V274.297H465.566V258.197Z" stroke="#694633" stroke-width="2" stroke-miterlimit="10" stroke-linecap="round" stroke-linejoin="round"/>
<path d="M471.355 257.918H465.566V274.588H471.355V257.918Z" stroke="#694633" stroke-width="2" stroke-miterlimit="10" stroke-linecap="round" stroke-linejoin="round"/>
<path d="M477.143 244.112H471.355V288.381H477.143V244.112Z" stroke="#694633" stroke-width="2" stroke-miterlimit="10" stroke-linecap="round" stroke-linejoin="round"/>
<path d="M482.932 262.228H477.143V270.278H482.932V262.228Z" stroke="#694633" stroke-width="2" stroke-miterlimit="10" stroke-linecap="round" stroke-linejoin="round"/>
<path d="M488.72 253.619H482.932V280.331H488.72V253.619Z" stroke="#694633" stroke-width="2" stroke-miterlimit="10" stroke-linecap="round" stroke-linejoin="round"/>
<path d="M500.297 254.749H494.509V277.745H500.297V254.749Z" stroke="#694633" stroke-width="2" stroke-miterlimit="10" stroke-linecap="round" stroke-linejoin="round"/>
<path d="M506.086 248.714H500.297V283.78H506.086V248.714Z" stroke="#694633" stroke-width="2" stroke-miterlimit="10" stroke-linecap="round" stroke-linejoin="round"/>
<path d="M511.874 259.642H506.086V272.864H511.874V259.642Z" stroke="#694633" stroke-width="2" stroke-miterlimit="10" stroke-linecap="round" stroke-linejoin="round"/>
<path d="M494.509 259.642H488.72V272.864H494.509V259.642Z" stroke="#694633" stroke-width="2" stroke-miterlimit="10" stroke-linecap="round" stroke-linejoin="round"/>
<path d="M517.663 257.918H511.874V274.588H517.663V257.918Z" stroke="#694633" stroke-width="2" stroke-miterlimit="10" stroke-linecap="round" stroke-linejoin="round"/>
<path d="M523.451 258.197H517.663V274.297H523.451V258.197Z" stroke="#694633" stroke-width="2" stroke-miterlimit="10" stroke-linecap="round" stroke-linejoin="round"/>
<path d="M529.24 254.749H523.451V277.745H529.24V254.749Z" stroke="#694633" stroke-width="2" stroke-miterlimit="10" stroke-linecap="round" stroke-linejoin="round"/>
<path d="M535.028 244.112H529.24V288.381H535.028V244.112Z" stroke="#694633" stroke-width="2" stroke-miterlimit="10" stroke-linecap="round" stroke-linejoin="round"/>
<path d="M540.817 254.749H535.028V277.745H540.817V254.749Z" stroke="#694633" stroke-width="2" stroke-miterlimit="10" stroke-linecap="round" stroke-linejoin="round"/>
<path d="M546.605 259.642H540.817V272.864H546.605V259.642Z" stroke="#694633" stroke-width="2" stroke-miterlimit="10" stroke-linecap="round" stroke-linejoin="round"/>
<path d="M552.394 264.195H546.605V267.073H552.394V264.195Z" stroke="#694633" stroke-width="2" stroke-miterlimit="10" stroke-linecap="round" stroke-linejoin="round"/>
<path d="M442.413 264.195H436.624V267.073H442.413V264.195Z" stroke="#694633" stroke-width="2" stroke-miterlimit="10" stroke-linecap="round" stroke-linejoin="round"/>
<path d="M117.044 179.821H61.5497C59.5595 179.821 58.3096 177.648 59.3047 175.924L69.0613 159.01C70.0686 157.274 72.5684 157.274 73.5635 159.01L82.1673 173.92L97.9067 146.649C98.9018 144.925 101.402 144.925 102.397 146.649L119.289 175.924C120.284 177.648 119.034 179.821 117.044 179.821Z" stroke="#694633" stroke-width="2" stroke-miterlimit="10" stroke-linecap="round" stroke-linejoin="round"/>
<path d="M150.27 109.374H22.2439V225.705H150.27V109.374Z" stroke="#694633" stroke-width="2" stroke-miterlimit="10" stroke-linecap="round" stroke-linejoin="round"/>
<path d="M150.27 205.21H22.2439V225.693H150.27V205.21Z" stroke="#694633" stroke-width="2" stroke-miterlimit="10" stroke-linecap="round" stroke-linejoin="round"/>
<path d="M529.422 55.4762V66.9138C529.422 72.4748 524.92 76.9794 519.362 76.9794H452.982L435.071 90.3355L440.896 76.9794H438.056C432.498 76.9794 427.996 72.4748 427.996 66.9138V55.4762C427.996 49.9152 432.498 45.4106 438.056 45.4106H519.362C524.92 45.4106 529.422 49.9152 529.422 55.4762Z" fill="#EDDDA4"/>
<path d="M456.162 61.8143V53.145H453.067V51.3844H461.355V53.145H458.273V61.8143H456.162Z" fill="#694633"/>
<path d="M465.991 59.4102L467.981 59.7502C467.726 60.4787 467.326 61.0372 466.768 61.4136C466.21 61.79 465.53 61.9843 464.693 61.9843C463.382 61.9843 462.411 61.5593 461.78 60.6972C461.283 60.0051 461.028 59.1431 461.028 58.0989C461.028 56.8482 461.355 55.8648 462.011 55.1605C462.666 54.4563 463.491 54.092 464.486 54.092C465.615 54.092 466.501 54.4684 467.144 55.2091C467.787 55.9497 468.103 57.0911 468.078 58.621H463.067C463.079 59.2159 463.236 59.6773 463.552 60.0051C463.867 60.333 464.244 60.503 464.705 60.503C465.02 60.503 465.275 60.418 465.494 60.248C465.712 60.078 465.882 59.7866 465.991 59.4102ZM466.1 57.3825C466.088 56.7997 465.943 56.3626 465.651 56.059C465.36 55.7555 465.02 55.6098 464.608 55.6098C464.171 55.6098 463.807 55.7676 463.528 56.0833C463.249 56.399 463.103 56.8361 463.103 57.3825H466.1Z" fill="#694633"/>
<path d="M468.746 61.8143L471.464 57.9167L468.855 54.2499H471.294L472.629 56.3261L474.037 54.2499H476.379L473.818 57.8317L476.609 61.8143H474.158L472.617 59.4709L471.064 61.8143H468.746Z" fill="#694633"/>
<path d="M481.269 54.262V55.8526H479.898V58.9002C479.898 59.5195 479.91 59.8716 479.934 59.9809C479.959 60.0901 480.019 60.163 480.117 60.2358C480.214 60.3087 480.323 60.333 480.456 60.333C480.638 60.333 480.905 60.2723 481.257 60.1387L481.427 61.6929C480.966 61.8871 480.432 61.9964 479.85 61.9964C479.485 61.9964 479.17 61.9357 478.879 61.8143C478.587 61.6929 478.381 61.535 478.248 61.3407C478.114 61.1465 478.017 60.8915 477.969 60.5637C477.92 60.333 477.908 59.8594 477.908 59.1552V55.8526H476.986V54.262H477.908V52.7564L479.91 51.5908V54.262H481.269Z" fill="#694633"/>
<path d="M482.192 57.9289C482.192 57.2611 482.349 56.6176 482.677 55.9983C483.005 55.3791 483.466 54.9055 484.072 54.5777C484.679 54.2499 485.347 54.092 486.087 54.092C487.228 54.092 488.162 54.4684 488.89 55.2091C489.618 55.9497 489.982 56.8847 489.982 58.026C489.982 59.1673 489.618 60.1144 488.878 60.8672C488.138 61.62 487.215 61.9964 486.099 61.9964C485.407 61.9964 484.752 61.8386 484.121 61.5229C483.49 61.2072 483.017 60.7458 482.689 60.1508C482.361 59.5559 482.192 58.8031 482.192 57.9289ZM484.242 58.0381C484.242 58.7909 484.424 59.3616 484.776 59.7623C485.128 60.163 485.565 60.3572 486.087 60.3572C486.609 60.3572 487.046 60.163 487.398 59.7623C487.749 59.3616 487.931 58.7909 487.931 58.026C487.931 57.2854 487.749 56.7147 487.398 56.314C487.046 55.9133 486.609 55.7191 486.087 55.7191C485.565 55.7191 485.128 55.9133 484.776 56.314C484.424 56.7147 484.242 57.2854 484.242 58.0381Z" fill="#694633"/>
<path d="M444.9 52.3193V47.159H441.211V44.585H439.743V47.159V52.3193H444.9Z" fill="#694633"/>
<path d="M438.274 52.3193V47.159H434.585V44.585H433.117V47.159V52.3193H438.274Z" fill="#694633"/>
<path d="M500.067 44.585V49.7453H503.744V52.3193H505.224V49.7453V44.585H500.067Z" fill="#694633"/>
<path d="M506.693 44.585V49.7453H510.382V52.3193H511.85V49.7453V44.585H506.693Z" fill="#694633"/>
<path d="M523.621 49.4053V60.8429C523.621 66.4039 519.119 70.9085 513.561 70.9085H447.182L429.27 84.2646L435.095 70.9085H432.255C426.697 70.9085 422.195 66.4039 422.195 60.8429V49.4053C422.195 43.8443 426.697 39.3397 432.255 39.3397H513.561C519.119 39.3397 523.621 43.8443 523.621 49.4053Z" stroke="#694633" stroke-width="2" stroke-miterlimit="10" stroke-linecap="round" stroke-linejoin="round"/>
<path d="M158.874 167.533L166.118 168.177" stroke="#694633" stroke-width="2" stroke-linecap="round" stroke-linejoin="round"/>
<path d="M176.615 169.1L192.355 170.484" stroke="#694633" stroke-width="2" stroke-linecap="round" stroke-linejoin="round" stroke-dasharray="8.68 8.68"/>
<path d="M197.609 170.945L204.854 171.589" stroke="#694633" stroke-width="2" stroke-linecap="round" stroke-linejoin="round"/>
<path d="M410.266 61.8021L403.459 64.4005" stroke="#694633" stroke-width="2" stroke-linecap="round" stroke-linejoin="round"/>
<path d="M394.915 67.6666L382.088 72.5598" stroke="#694633" stroke-width="2" stroke-linecap="round" stroke-linejoin="round" stroke-dasharray="7.54 7.54"/>
<path d="M377.817 74.199L371.021 76.7973" stroke="#694633" stroke-width="2" stroke-linecap="round" stroke-linejoin="round"/>
<path d="M410.266 259.083L403.422 261.584" stroke="#694633" stroke-width="2" stroke-linecap="round" stroke-linejoin="round"/>
<path d="M394.903 264.693L382.125 269.355" stroke="#694633" stroke-width="2" stroke-linecap="round" stroke-linejoin="round" stroke-dasharray="7.47 7.47"/>
<path d="M377.853 270.909L371.021 273.411" stroke="#694633" stroke-width="2" stroke-linecap="round" stroke-linejoin="round"/>
</svg>
